# Original Rodeo Fantasy mesh; Roblox studs; +Y up, -Z forward
mtllib Weedcrow_A_S1.mtl
o Body
usemtl color_0
s off
v 0.000000 0.895000 0.150000
v 0.000000 -0.955000 0.150000
v 0.562500 0.771073 0.150000
v 0.455072 0.771073 0.543816
v 0.173822 0.771073 0.787208
v -0.173822 0.771073 0.787208
v -0.455072 0.771073 0.543816
v -0.562500 0.771073 0.150000
v -0.455072 0.771073 -0.243816
v -0.173822 0.771073 -0.487208
v 0.173822 0.771073 -0.487208
v 0.455072 0.771073 -0.243816
v 0.974279 0.432500 0.150000
v 0.788208 0.432500 0.832110
v 0.301069 0.432500 1.253676
v -0.301069 0.432500 1.253676
v -0.788208 0.432500 0.832110
v -0.974279 0.432500 0.150000
v -0.788208 0.432500 -0.532110
v -0.301069 0.432500 -0.953676
v 0.301069 0.432500 -0.953676
v 0.788208 0.432500 -0.532110
v 1.125000 -0.030000 0.150000
v 0.910144 -0.030000 0.937632
v 0.347644 -0.030000 1.424416
v -0.347644 -0.030000 1.424416
v -0.910144 -0.030000 0.937632
v -1.125000 -0.030000 0.150000
v -0.910144 -0.030000 -0.637632
v -0.347644 -0.030000 -1.124416
v 0.347644 -0.030000 -1.124416
v 0.910144 -0.030000 -0.637632
v 0.974279 -0.492500 0.150000
v 0.788208 -0.492500 0.832110
v 0.301069 -0.492500 1.253676
v -0.301069 -0.492500 1.253676
v -0.788208 -0.492500 0.832110
v -0.974279 -0.492500 0.150000
v -0.788208 -0.492500 -0.532110
v -0.301069 -0.492500 -0.953676
v 0.301069 -0.492500 -0.953676
v 0.788208 -0.492500 -0.532110
v 0.562500 -0.831073 0.150000
v 0.455072 -0.831073 0.543816
v 0.173822 -0.831073 0.787208
v -0.173822 -0.831073 0.787208
v -0.455072 -0.831073 0.543816
v -0.562500 -0.831073 0.150000
v -0.455072 -0.831073 -0.243816
v -0.173822 -0.831073 -0.487208
v 0.173822 -0.831073 -0.487208
v 0.455072 -0.831073 -0.243816
f 1 4 3
f 2 43 44
f 3 4 14
f 3 14 13
f 13 14 24
f 13 24 23
f 23 24 34
f 23 34 33
f 33 34 44
f 33 44 43
f 1 5 4
f 2 44 45
f 4 5 15
f 4 15 14
f 14 15 25
f 14 25 24
f 24 25 35
f 24 35 34
f 34 35 45
f 34 45 44
f 1 6 5
f 2 45 46
f 5 6 16
f 5 16 15
f 15 16 26
f 15 26 25
f 25 26 36
f 25 36 35
f 35 36 46
f 35 46 45
f 1 7 6
f 2 46 47
f 6 7 17
f 6 17 16
f 16 17 27
f 16 27 26
f 26 27 37
f 26 37 36
f 36 37 47
f 36 47 46
f 1 8 7
f 2 47 48
f 7 8 18
f 7 18 17
f 17 18 28
f 17 28 27
f 27 28 38
f 27 38 37
f 37 38 48
f 37 48 47
f 1 9 8
f 2 48 49
f 8 9 19
f 8 19 18
f 18 19 29
f 18 29 28
f 28 29 39
f 28 39 38
f 38 39 49
f 38 49 48
f 1 10 9
f 2 49 50
f 9 10 20
f 9 20 19
f 19 20 30
f 19 30 29
f 29 30 40
f 29 40 39
f 39 40 50
f 39 50 49
f 1 11 10
f 2 50 51
f 10 11 21
f 10 21 20
f 20 21 31
f 20 31 30
f 30 31 41
f 30 41 40
f 40 41 51
f 40 51 50
f 1 12 11
f 2 51 52
f 11 12 22
f 11 22 21
f 21 22 32
f 21 32 31
f 31 32 42
f 31 42 41
f 41 42 52
f 41 52 51
f 1 3 12
f 2 52 43
f 12 3 13
f 12 13 22
f 22 13 23
f 22 23 32
f 32 23 33
f 32 33 42
f 42 33 43
f 42 43 52
o Chest
usemtl color_1
s off
v 0.000000 0.725000 -0.800000
v 0.000000 -0.925000 -0.800000
v 0.412500 0.614471 -0.800000
v 0.333720 0.614471 -0.547252
v 0.127470 0.614471 -0.391046
v -0.127470 0.614471 -0.391046
v -0.333720 0.614471 -0.547252
v -0.412500 0.614471 -0.800000
v -0.333720 0.614471 -1.052748
v -0.127470 0.614471 -1.208954
v 0.127470 0.614471 -1.208954
v 0.333720 0.614471 -1.052748
v 0.714471 0.312500 -0.800000
v 0.578019 0.312500 -0.362228
v 0.220784 0.312500 -0.091670
v -0.220784 0.312500 -0.091670
v -0.578019 0.312500 -0.362228
v -0.714471 0.312500 -0.800000
v -0.578019 0.312500 -1.237772
v -0.220784 0.312500 -1.508330
v 0.220784 0.312500 -1.508330
v 0.578019 0.312500 -1.237772
v 0.825000 -0.100000 -0.800000
v 0.667439 -0.100000 -0.294505
v 0.254939 -0.100000 0.017909
v -0.254939 -0.100000 0.017909
v -0.667439 -0.100000 -0.294505
v -0.825000 -0.100000 -0.800000
v -0.667439 -0.100000 -1.305495
v -0.254939 -0.100000 -1.617909
v 0.254939 -0.100000 -1.617909
v 0.667439 -0.100000 -1.305495
v 0.714471 -0.512500 -0.800000
v 0.578019 -0.512500 -0.362228
v 0.220784 -0.512500 -0.091670
v -0.220784 -0.512500 -0.091670
v -0.578019 -0.512500 -0.362228
v -0.714471 -0.512500 -0.800000
v -0.578019 -0.512500 -1.237772
v -0.220784 -0.512500 -1.508330
v 0.220784 -0.512500 -1.508330
v 0.578019 -0.512500 -1.237772
v 0.412500 -0.814471 -0.800000
v 0.333720 -0.814471 -0.547252
v 0.127470 -0.814471 -0.391046
v -0.127470 -0.814471 -0.391046
v -0.333720 -0.814471 -0.547252
v -0.412500 -0.814471 -0.800000
v -0.333720 -0.814471 -1.052748
v -0.127470 -0.814471 -1.208954
v 0.127470 -0.814471 -1.208954
v 0.333720 -0.814471 -1.052748
f 53 56 55
f 54 95 96
f 55 56 66
f 55 66 65
f 65 66 76
f 65 76 75
f 75 76 86
f 75 86 85
f 85 86 96
f 85 96 95
f 53 57 56
f 54 96 97
f 56 57 67
f 56 67 66
f 66 67 77
f 66 77 76
f 76 77 87
f 76 87 86
f 86 87 97
f 86 97 96
f 53 58 57
f 54 97 98
f 57 58 68
f 57 68 67
f 67 68 78
f 67 78 77
f 77 78 88
f 77 88 87
f 87 88 98
f 87 98 97
f 53 59 58
f 54 98 99
f 58 59 69
f 58 69 68
f 68 69 79
f 68 79 78
f 78 79 89
f 78 89 88
f 88 89 99
f 88 99 98
f 53 60 59
f 54 99 100
f 59 60 70
f 59 70 69
f 69 70 80
f 69 80 79
f 79 80 90
f 79 90 89
f 89 90 100
f 89 100 99
f 53 61 60
f 54 100 101
f 60 61 71
f 60 71 70
f 70 71 81
f 70 81 80
f 80 81 91
f 80 91 90
f 90 91 101
f 90 101 100
f 53 62 61
f 54 101 102
f 61 62 72
f 61 72 71
f 71 72 82
f 71 82 81
f 81 82 92
f 81 92 91
f 91 92 102
f 91 102 101
f 53 63 62
f 54 102 103
f 62 63 73
f 62 73 72
f 72 73 83
f 72 83 82
f 82 83 93
f 82 93 92
f 92 93 103
f 92 103 102
f 53 64 63
f 54 103 104
f 63 64 74
f 63 74 73
f 73 74 84
f 73 84 83
f 83 84 94
f 83 94 93
f 93 94 104
f 93 104 103
f 53 55 64
f 54 104 95
f 64 55 65
f 64 65 74
f 74 65 75
f 74 75 84
f 84 75 85
f 84 85 94
f 94 85 95
f 94 95 104
o Head
usemtl color_2
s off
v 0.000000 1.475000 -1.140000
v 0.000000 -0.275000 -1.140000
v 0.492500 1.357772 -1.140000
v 0.398441 1.357772 -0.887252
v 0.152191 1.357772 -0.731046
v -0.152191 1.357772 -0.731046
v -0.398441 1.357772 -0.887252
v -0.492500 1.357772 -1.140000
v -0.398441 1.357772 -1.392748
v -0.152191 1.357772 -1.548954
v 0.152191 1.357772 -1.548954
v 0.398441 1.357772 -1.392748
v 0.853035 1.037500 -1.140000
v 0.690120 1.037500 -0.702228
v 0.263602 1.037500 -0.431670
v -0.263602 1.037500 -0.431670
v -0.690120 1.037500 -0.702228
v -0.853035 1.037500 -1.140000
v -0.690120 1.037500 -1.577772
v -0.263602 1.037500 -1.848330
v 0.263602 1.037500 -1.848330
v 0.690120 1.037500 -1.577772
v 0.985000 0.600000 -1.140000
v 0.796882 0.600000 -0.634505
v 0.304382 0.600000 -0.322091
v -0.304382 0.600000 -0.322091
v -0.796882 0.600000 -0.634505
v -0.985000 0.600000 -1.140000
v -0.796882 0.600000 -1.645495
v -0.304382 0.600000 -1.957909
v 0.304382 0.600000 -1.957909
v 0.796882 0.600000 -1.645495
v 0.853035 0.162500 -1.140000
v 0.690120 0.162500 -0.702228
v 0.263602 0.162500 -0.431670
v -0.263602 0.162500 -0.431670
v -0.690120 0.162500 -0.702228
v -0.853035 0.162500 -1.140000
v -0.690120 0.162500 -1.577772
v -0.263602 0.162500 -1.848330
v 0.263602 0.162500 -1.848330
v 0.690120 0.162500 -1.577772
v 0.492500 -0.157772 -1.140000
v 0.398441 -0.157772 -0.887252
v 0.152191 -0.157772 -0.731046
v -0.152191 -0.157772 -0.731046
v -0.398441 -0.157772 -0.887252
v -0.492500 -0.157772 -1.140000
v -0.398441 -0.157772 -1.392748
v -0.152191 -0.157772 -1.548954
v 0.152191 -0.157772 -1.548954
v 0.398441 -0.157772 -1.392748
f 105 108 107
f 106 147 148
f 107 108 118
f 107 118 117
f 117 118 128
f 117 128 127
f 127 128 138
f 127 138 137
f 137 138 148
f 137 148 147
f 105 109 108
f 106 148 149
f 108 109 119
f 108 119 118
f 118 119 129
f 118 129 128
f 128 129 139
f 128 139 138
f 138 139 149
f 138 149 148
f 105 110 109
f 106 149 150
f 109 110 120
f 109 120 119
f 119 120 130
f 119 130 129
f 129 130 140
f 129 140 139
f 139 140 150
f 139 150 149
f 105 111 110
f 106 150 151
f 110 111 121
f 110 121 120
f 120 121 131
f 120 131 130
f 130 131 141
f 130 141 140
f 140 141 151
f 140 151 150
f 105 112 111
f 106 151 152
f 111 112 122
f 111 122 121
f 121 122 132
f 121 132 131
f 131 132 142
f 131 142 141
f 141 142 152
f 141 152 151
f 105 113 112
f 106 152 153
f 112 113 123
f 112 123 122
f 122 123 133
f 122 133 132
f 132 133 143
f 132 143 142
f 142 143 153
f 142 153 152
f 105 114 113
f 106 153 154
f 113 114 124
f 113 124 123
f 123 124 134
f 123 134 133
f 133 134 144
f 133 144 143
f 143 144 154
f 143 154 153
f 105 115 114
f 106 154 155
f 114 115 125
f 114 125 124
f 124 125 135
f 124 135 134
f 134 135 145
f 134 145 144
f 144 145 155
f 144 155 154
f 105 116 115
f 106 155 156
f 115 116 126
f 115 126 125
f 125 126 136
f 125 136 135
f 135 136 146
f 135 146 145
f 145 146 156
f 145 156 155
f 105 107 116
f 106 156 147
f 116 107 117
f 116 117 126
f 126 117 127
f 126 127 136
f 136 127 137
f 136 137 146
f 146 137 147
f 146 147 156
o LeftEyeRim
usemtl color_3
s off
v -0.610700 1.200000 -1.955000
v -0.610700 0.420000 -1.955000
v -0.445700 1.147750 -1.955000
v -0.477212 1.147750 -1.928550
v -0.559712 1.147750 -1.912202
v -0.661688 1.147750 -1.912202
v -0.744188 1.147750 -1.928550
v -0.775700 1.147750 -1.955000
v -0.744188 1.147750 -1.981450
v -0.661688 1.147750 -1.997798
v -0.559712 1.147750 -1.997798
v -0.477212 1.147750 -1.981450
v -0.324912 1.005000 -1.955000
v -0.379492 1.005000 -1.909187
v -0.522387 1.005000 -1.880872
v -0.699013 1.005000 -1.880872
v -0.841908 1.005000 -1.909187
v -0.896488 1.005000 -1.955000
v -0.841908 1.005000 -2.000813
v -0.699013 1.005000 -2.029128
v -0.522387 1.005000 -2.029128
v -0.379492 1.005000 -2.000813
v -0.280700 0.810000 -1.955000
v -0.343724 0.810000 -1.902099
v -0.508724 0.810000 -1.869405
v -0.712676 0.810000 -1.869405
v -0.877676 0.810000 -1.902099
v -0.940700 0.810000 -1.955000
v -0.877676 0.810000 -2.007901
v -0.712676 0.810000 -2.040595
v -0.508724 0.810000 -2.040595
v -0.343724 0.810000 -2.007901
v -0.324912 0.615000 -1.955000
v -0.379492 0.615000 -1.909187
v -0.522387 0.615000 -1.880872
v -0.699013 0.615000 -1.880872
v -0.841908 0.615000 -1.909187
v -0.896488 0.615000 -1.955000
v -0.841908 0.615000 -2.000813
v -0.699013 0.615000 -2.029128
v -0.522387 0.615000 -2.029128
v -0.379492 0.615000 -2.000813
v -0.445700 0.472250 -1.955000
v -0.477212 0.472250 -1.928550
v -0.559712 0.472250 -1.912202
v -0.661688 0.472250 -1.912202
v -0.744188 0.472250 -1.928550
v -0.775700 0.472250 -1.955000
v -0.744188 0.472250 -1.981450
v -0.661688 0.472250 -1.997798
v -0.559712 0.472250 -1.997798
v -0.477212 0.472250 -1.981450
f 157 160 159
f 158 199 200
f 159 160 170
f 159 170 169
f 169 170 180
f 169 180 179
f 179 180 190
f 179 190 189
f 189 190 200
f 189 200 199
f 157 161 160
f 158 200 201
f 160 161 171
f 160 171 170
f 170 171 181
f 170 181 180
f 180 181 191
f 180 191 190
f 190 191 201
f 190 201 200
f 157 162 161
f 158 201 202
f 161 162 172
f 161 172 171
f 171 172 182
f 171 182 181
f 181 182 192
f 181 192 191
f 191 192 202
f 191 202 201
f 157 163 162
f 158 202 203
f 162 163 173
f 162 173 172
f 172 173 183
f 172 183 182
f 182 183 193
f 182 193 192
f 192 193 203
f 192 203 202
f 157 164 163
f 158 203 204
f 163 164 174
f 163 174 173
f 173 174 184
f 173 184 183
f 183 184 194
f 183 194 193
f 193 194 204
f 193 204 203
f 157 165 164
f 158 204 205
f 164 165 175
f 164 175 174
f 174 175 185
f 174 185 184
f 184 185 195
f 184 195 194
f 194 195 205
f 194 205 204
f 157 166 165
f 158 205 206
f 165 166 176
f 165 176 175
f 175 176 186
f 175 186 185
f 185 186 196
f 185 196 195
f 195 196 206
f 195 206 205
f 157 167 166
f 158 206 207
f 166 167 177
f 166 177 176
f 176 177 187
f 176 187 186
f 186 187 197
f 186 197 196
f 196 197 207
f 196 207 206
f 157 168 167
f 158 207 208
f 167 168 178
f 167 178 177
f 177 178 188
f 177 188 187
f 187 188 198
f 187 198 197
f 197 198 208
f 197 208 207
f 157 159 168
f 158 208 199
f 168 159 169
f 168 169 178
f 178 169 179
f 178 179 188
f 188 179 189
f 188 189 198
f 198 189 199
f 198 199 208
o LeftEyeWhite
usemtl color_4
s off
v -0.610700 1.160000 -2.050000
v -0.610700 0.460000 -2.050000
v -0.468200 1.113109 -2.050000
v -0.495415 1.113109 -2.026489
v -0.566665 1.113109 -2.011958
v -0.654735 1.113109 -2.011958
v -0.725985 1.113109 -2.026489
v -0.753200 1.113109 -2.050000
v -0.725985 1.113109 -2.073511
v -0.654735 1.113109 -2.088042
v -0.566665 1.113109 -2.088042
v -0.495415 1.113109 -2.073511
v -0.363883 0.985000 -2.050000
v -0.411021 0.985000 -2.009277
v -0.534429 0.985000 -1.984109
v -0.686971 0.985000 -1.984109
v -0.810379 0.985000 -2.009277
v -0.857517 0.985000 -2.050000
v -0.810379 0.985000 -2.090723
v -0.686971 0.985000 -2.115891
v -0.534429 0.985000 -2.115891
v -0.411021 0.985000 -2.090723
v -0.325700 0.810000 -2.050000
v -0.380130 0.810000 -2.002977
v -0.522630 0.810000 -1.973915
v -0.698770 0.810000 -1.973915
v -0.841270 0.810000 -2.002977
v -0.895700 0.810000 -2.050000
v -0.841270 0.810000 -2.097023
v -0.698770 0.810000 -2.126085
v -0.522630 0.810000 -2.126085
v -0.380130 0.810000 -2.097023
v -0.363883 0.635000 -2.050000
v -0.411021 0.635000 -2.009277
v -0.534429 0.635000 -1.984109
v -0.686971 0.635000 -1.984109
v -0.810379 0.635000 -2.009277
v -0.857517 0.635000 -2.050000
v -0.810379 0.635000 -2.090723
v -0.686971 0.635000 -2.115891
v -0.534429 0.635000 -2.115891
v -0.411021 0.635000 -2.090723
v -0.468200 0.506891 -2.050000
v -0.495415 0.506891 -2.026489
v -0.566665 0.506891 -2.011958
v -0.654735 0.506891 -2.011958
v -0.725985 0.506891 -2.026489
v -0.753200 0.506891 -2.050000
v -0.725985 0.506891 -2.073511
v -0.654735 0.506891 -2.088042
v -0.566665 0.506891 -2.088042
v -0.495415 0.506891 -2.073511
f 209 212 211
f 210 251 252
f 211 212 222
f 211 222 221
f 221 222 232
f 221 232 231
f 231 232 242
f 231 242 241
f 241 242 252
f 241 252 251
f 209 213 212
f 210 252 253
f 212 213 223
f 212 223 222
f 222 223 233
f 222 233 232
f 232 233 243
f 232 243 242
f 242 243 253
f 242 253 252
f 209 214 213
f 210 253 254
f 213 214 224
f 213 224 223
f 223 224 234
f 223 234 233
f 233 234 244
f 233 244 243
f 243 244 254
f 243 254 253
f 209 215 214
f 210 254 255
f 214 215 225
f 214 225 224
f 224 225 235
f 224 235 234
f 234 235 245
f 234 245 244
f 244 245 255
f 244 255 254
f 209 216 215
f 210 255 256
f 215 216 226
f 215 226 225
f 225 226 236
f 225 236 235
f 235 236 246
f 235 246 245
f 245 246 256
f 245 256 255
f 209 217 216
f 210 256 257
f 216 217 227
f 216 227 226
f 226 227 237
f 226 237 236
f 236 237 247
f 236 247 246
f 246 247 257
f 246 257 256
f 209 218 217
f 210 257 258
f 217 218 228
f 217 228 227
f 227 228 238
f 227 238 237
f 237 238 248
f 237 248 247
f 247 248 258
f 247 258 257
f 209 219 218
f 210 258 259
f 218 219 229
f 218 229 228
f 228 229 239
f 228 239 238
f 238 239 249
f 238 249 248
f 248 249 259
f 248 259 258
f 209 220 219
f 210 259 260
f 219 220 230
f 219 230 229
f 229 230 240
f 229 240 239
f 239 240 250
f 239 250 249
f 249 250 260
f 249 260 259
f 209 211 220
f 210 260 251
f 220 211 221
f 220 221 230
f 230 221 231
f 230 231 240
f 240 231 241
f 240 241 250
f 250 241 251
f 250 251 260
o LeftIris
usemtl color_5
s off
v -0.585700 1.100000 -2.140000
v -0.585700 0.520000 -2.140000
v -0.488200 1.061147 -2.140000
v -0.506821 1.061147 -2.120897
v -0.555571 1.061147 -2.109091
v -0.615829 1.061147 -2.109091
v -0.664579 1.061147 -2.120897
v -0.683200 1.061147 -2.140000
v -0.664579 1.061147 -2.159103
v -0.615829 1.061147 -2.170909
v -0.555571 1.061147 -2.170909
v -0.506821 1.061147 -2.159103
v -0.416825 0.955000 -2.140000
v -0.449077 0.955000 -2.106913
v -0.533515 0.955000 -2.086463
v -0.637885 0.955000 -2.086463
v -0.722323 0.955000 -2.106913
v -0.754575 0.955000 -2.140000
v -0.722323 0.955000 -2.173087
v -0.637885 0.955000 -2.193537
v -0.533515 0.955000 -2.193537
v -0.449077 0.955000 -2.173087
v -0.390700 0.810000 -2.140000
v -0.427942 0.810000 -2.101794
v -0.525442 0.810000 -2.078181
v -0.645958 0.810000 -2.078181
v -0.743458 0.810000 -2.101794
v -0.780700 0.810000 -2.140000
v -0.743458 0.810000 -2.178206
v -0.645958 0.810000 -2.201819
v -0.525442 0.810000 -2.201819
v -0.427942 0.810000 -2.178206
v -0.416825 0.665000 -2.140000
v -0.449077 0.665000 -2.106913
v -0.533515 0.665000 -2.086463
v -0.637885 0.665000 -2.086463
v -0.722323 0.665000 -2.106913
v -0.754575 0.665000 -2.140000
v -0.722323 0.665000 -2.173087
v -0.637885 0.665000 -2.193537
v -0.533515 0.665000 -2.193537
v -0.449077 0.665000 -2.173087
v -0.488200 0.558853 -2.140000
v -0.506821 0.558853 -2.120897
v -0.555571 0.558853 -2.109091
v -0.615829 0.558853 -2.109091
v -0.664579 0.558853 -2.120897
v -0.683200 0.558853 -2.140000
v -0.664579 0.558853 -2.159103
v -0.615829 0.558853 -2.170909
v -0.555571 0.558853 -2.170909
v -0.506821 0.558853 -2.159103
f 261 264 263
f 262 303 304
f 263 264 274
f 263 274 273
f 273 274 284
f 273 284 283
f 283 284 294
f 283 294 293
f 293 294 304
f 293 304 303
f 261 265 264
f 262 304 305
f 264 265 275
f 264 275 274
f 274 275 285
f 274 285 284
f 284 285 295
f 284 295 294
f 294 295 305
f 294 305 304
f 261 266 265
f 262 305 306
f 265 266 276
f 265 276 275
f 275 276 286
f 275 286 285
f 285 286 296
f 285 296 295
f 295 296 306
f 295 306 305
f 261 267 266
f 262 306 307
f 266 267 277
f 266 277 276
f 276 277 287
f 276 287 286
f 286 287 297
f 286 297 296
f 296 297 307
f 296 307 306
f 261 268 267
f 262 307 308
f 267 268 278
f 267 278 277
f 277 278 288
f 277 288 287
f 287 288 298
f 287 298 297
f 297 298 308
f 297 308 307
f 261 269 268
f 262 308 309
f 268 269 279
f 268 279 278
f 278 279 289
f 278 289 288
f 288 289 299
f 288 299 298
f 298 299 309
f 298 309 308
f 261 270 269
f 262 309 310
f 269 270 280
f 269 280 279
f 279 280 290
f 279 290 289
f 289 290 300
f 289 300 299
f 299 300 310
f 299 310 309
f 261 271 270
f 262 310 311
f 270 271 281
f 270 281 280
f 280 281 291
f 280 291 290
f 290 291 301
f 290 301 300
f 300 301 311
f 300 311 310
f 261 272 271
f 262 311 312
f 271 272 282
f 271 282 281
f 281 282 292
f 281 292 291
f 291 292 302
f 291 302 301
f 301 302 312
f 301 312 311
f 261 263 272
f 262 312 303
f 272 263 273
f 272 273 282
f 282 273 283
f 282 283 292
f 292 283 293
f 292 293 302
f 302 293 303
f 302 303 312
o LeftPupil
usemtl color_6
s off
v -0.580700 1.030000 -2.195000
v -0.580700 0.590000 -2.195000
v -0.520700 1.000526 -2.195000
v -0.532159 1.000526 -2.183244
v -0.562159 1.000526 -2.175979
v -0.599241 1.000526 -2.175979
v -0.629241 1.000526 -2.183244
v -0.640700 1.000526 -2.195000
v -0.629241 1.000526 -2.206756
v -0.599241 1.000526 -2.214021
v -0.562159 1.000526 -2.214021
v -0.532159 1.000526 -2.206756
v -0.476777 0.920000 -2.195000
v -0.496624 0.920000 -2.174639
v -0.548586 0.920000 -2.162054
v -0.612814 0.920000 -2.162054
v -0.664776 0.920000 -2.174639
v -0.684623 0.920000 -2.195000
v -0.664776 0.920000 -2.215361
v -0.612814 0.920000 -2.227946
v -0.548586 0.920000 -2.227946
v -0.496624 0.920000 -2.215361
v -0.460700 0.810000 -2.195000
v -0.483618 0.810000 -2.171489
v -0.543618 0.810000 -2.156958
v -0.617782 0.810000 -2.156958
v -0.677782 0.810000 -2.171489
v -0.700700 0.810000 -2.195000
v -0.677782 0.810000 -2.218511
v -0.617782 0.810000 -2.233042
v -0.543618 0.810000 -2.233042
v -0.483618 0.810000 -2.218511
v -0.476777 0.700000 -2.195000
v -0.496624 0.700000 -2.174639
v -0.548586 0.700000 -2.162054
v -0.612814 0.700000 -2.162054
v -0.664776 0.700000 -2.174639
v -0.684623 0.700000 -2.195000
v -0.664776 0.700000 -2.215361
v -0.612814 0.700000 -2.227946
v -0.548586 0.700000 -2.227946
v -0.496624 0.700000 -2.215361
v -0.520700 0.619474 -2.195000
v -0.532159 0.619474 -2.183244
v -0.562159 0.619474 -2.175979
v -0.599241 0.619474 -2.175979
v -0.629241 0.619474 -2.183244
v -0.640700 0.619474 -2.195000
v -0.629241 0.619474 -2.206756
v -0.599241 0.619474 -2.214021
v -0.562159 0.619474 -2.214021
v -0.532159 0.619474 -2.206756
f 313 316 315
f 314 355 356
f 315 316 326
f 315 326 325
f 325 326 336
f 325 336 335
f 335 336 346
f 335 346 345
f 345 346 356
f 345 356 355
f 313 317 316
f 314 356 357
f 316 317 327
f 316 327 326
f 326 327 337
f 326 337 336
f 336 337 347
f 336 347 346
f 346 347 357
f 346 357 356
f 313 318 317
f 314 357 358
f 317 318 328
f 317 328 327
f 327 328 338
f 327 338 337
f 337 338 348
f 337 348 347
f 347 348 358
f 347 358 357
f 313 319 318
f 314 358 359
f 318 319 329
f 318 329 328
f 328 329 339
f 328 339 338
f 338 339 349
f 338 349 348
f 348 349 359
f 348 359 358
f 313 320 319
f 314 359 360
f 319 320 330
f 319 330 329
f 329 330 340
f 329 340 339
f 339 340 350
f 339 350 349
f 349 350 360
f 349 360 359
f 313 321 320
f 314 360 361
f 320 321 331
f 320 331 330
f 330 331 341
f 330 341 340
f 340 341 351
f 340 351 350
f 350 351 361
f 350 361 360
f 313 322 321
f 314 361 362
f 321 322 332
f 321 332 331
f 331 332 342
f 331 342 341
f 341 342 352
f 341 352 351
f 351 352 362
f 351 362 361
f 313 323 322
f 314 362 363
f 322 323 333
f 322 333 332
f 332 333 343
f 332 343 342
f 342 343 353
f 342 353 352
f 352 353 363
f 352 363 362
f 313 324 323
f 314 363 364
f 323 324 334
f 323 334 333
f 333 334 344
f 333 344 343
f 343 344 354
f 343 354 353
f 353 354 364
f 353 364 363
f 313 315 324
f 314 364 355
f 324 315 325
f 324 325 334
f 334 325 335
f 334 335 344
f 344 335 345
f 344 345 354
f 354 345 355
f 354 355 364
o LeftShine
usemtl color_7
s off
v -0.510700 1.060000 -2.243000
v -0.510700 0.900000 -2.243000
v -0.480700 1.049282 -2.243000
v -0.486429 1.049282 -2.236387
v -0.501429 1.049282 -2.232301
v -0.519971 1.049282 -2.232301
v -0.534971 1.049282 -2.236387
v -0.540700 1.049282 -2.243000
v -0.534971 1.049282 -2.249613
v -0.519971 1.049282 -2.253699
v -0.501429 1.049282 -2.253699
v -0.486429 1.049282 -2.249613
v -0.458738 1.020000 -2.243000
v -0.468662 1.020000 -2.231547
v -0.494643 1.020000 -2.224468
v -0.526757 1.020000 -2.224468
v -0.552738 1.020000 -2.231547
v -0.562662 1.020000 -2.243000
v -0.552738 1.020000 -2.254453
v -0.526757 1.020000 -2.261532
v -0.494643 1.020000 -2.261532
v -0.468662 1.020000 -2.254453
v -0.450700 0.980000 -2.243000
v -0.462159 0.980000 -2.229775
v -0.492159 0.980000 -2.221601
v -0.529241 0.980000 -2.221601
v -0.559241 0.980000 -2.229775
v -0.570700 0.980000 -2.243000
v -0.559241 0.980000 -2.256225
v -0.529241 0.980000 -2.264399
v -0.492159 0.980000 -2.264399
v -0.462159 0.980000 -2.256225
v -0.458738 0.940000 -2.243000
v -0.468662 0.940000 -2.231547
v -0.494643 0.940000 -2.224468
v -0.526757 0.940000 -2.224468
v -0.552738 0.940000 -2.231547
v -0.562662 0.940000 -2.243000
v -0.552738 0.940000 -2.254453
v -0.526757 0.940000 -2.261532
v -0.494643 0.940000 -2.261532
v -0.468662 0.940000 -2.254453
v -0.480700 0.910718 -2.243000
v -0.486429 0.910718 -2.236387
v -0.501429 0.910718 -2.232301
v -0.519971 0.910718 -2.232301
v -0.534971 0.910718 -2.236387
v -0.540700 0.910718 -2.243000
v -0.534971 0.910718 -2.249613
v -0.519971 0.910718 -2.253699
v -0.501429 0.910718 -2.253699
v -0.486429 0.910718 -2.249613
f 365 368 367
f 366 407 408
f 367 368 378
f 367 378 377
f 377 378 388
f 377 388 387
f 387 388 398
f 387 398 397
f 397 398 408
f 397 408 407
f 365 369 368
f 366 408 409
f 368 369 379
f 368 379 378
f 378 379 389
f 378 389 388
f 388 389 399
f 388 399 398
f 398 399 409
f 398 409 408
f 365 370 369
f 366 409 410
f 369 370 380
f 369 380 379
f 379 380 390
f 379 390 389
f 389 390 400
f 389 400 399
f 399 400 410
f 399 410 409
f 365 371 370
f 366 410 411
f 370 371 381
f 370 381 380
f 380 381 391
f 380 391 390
f 390 391 401
f 390 401 400
f 400 401 411
f 400 411 410
f 365 372 371
f 366 411 412
f 371 372 382
f 371 382 381
f 381 382 392
f 381 392 391
f 391 392 402
f 391 402 401
f 401 402 412
f 401 412 411
f 365 373 372
f 366 412 413
f 372 373 383
f 372 383 382
f 382 383 393
f 382 393 392
f 392 393 403
f 392 403 402
f 402 403 413
f 402 413 412
f 365 374 373
f 366 413 414
f 373 374 384
f 373 384 383
f 383 384 394
f 383 394 393
f 393 394 404
f 393 404 403
f 403 404 414
f 403 414 413
f 365 375 374
f 366 414 415
f 374 375 385
f 374 385 384
f 384 385 395
f 384 395 394
f 394 395 405
f 394 405 404
f 404 405 415
f 404 415 414
f 365 376 375
f 366 415 416
f 375 376 386
f 375 386 385
f 385 386 396
f 385 396 395
f 395 396 406
f 395 406 405
f 405 406 416
f 405 416 415
f 365 367 376
f 366 416 407
f 376 367 377
f 376 377 386
f 386 377 387
f 386 387 396
f 396 387 397
f 396 397 406
f 406 397 407
f 406 407 416
o RightEyeRim
usemtl color_8
s off
v 0.610700 1.200000 -1.955000
v 0.610700 0.420000 -1.955000
v 0.775700 1.147750 -1.955000
v 0.744188 1.147750 -1.928550
v 0.661688 1.147750 -1.912202
v 0.559712 1.147750 -1.912202
v 0.477212 1.147750 -1.928550
v 0.445700 1.147750 -1.955000
v 0.477212 1.147750 -1.981450
v 0.559712 1.147750 -1.997798
v 0.661688 1.147750 -1.997798
v 0.744188 1.147750 -1.981450
v 0.896488 1.005000 -1.955000
v 0.841908 1.005000 -1.909187
v 0.699013 1.005000 -1.880872
v 0.522387 1.005000 -1.880872
v 0.379492 1.005000 -1.909187
v 0.324912 1.005000 -1.955000
v 0.379492 1.005000 -2.000813
v 0.522387 1.005000 -2.029128
v 0.699013 1.005000 -2.029128
v 0.841908 1.005000 -2.000813
v 0.940700 0.810000 -1.955000
v 0.877676 0.810000 -1.902099
v 0.712676 0.810000 -1.869405
v 0.508724 0.810000 -1.869405
v 0.343724 0.810000 -1.902099
v 0.280700 0.810000 -1.955000
v 0.343724 0.810000 -2.007901
v 0.508724 0.810000 -2.040595
v 0.712676 0.810000 -2.040595
v 0.877676 0.810000 -2.007901
v 0.896488 0.615000 -1.955000
v 0.841908 0.615000 -1.909187
v 0.699013 0.615000 -1.880872
v 0.522387 0.615000 -1.880872
v 0.379492 0.615000 -1.909187
v 0.324912 0.615000 -1.955000
v 0.379492 0.615000 -2.000813
v 0.522387 0.615000 -2.029128
v 0.699013 0.615000 -2.029128
v 0.841908 0.615000 -2.000813
v 0.775700 0.472250 -1.955000
v 0.744188 0.472250 -1.928550
v 0.661688 0.472250 -1.912202
v 0.559712 0.472250 -1.912202
v 0.477212 0.472250 -1.928550
v 0.445700 0.472250 -1.955000
v 0.477212 0.472250 -1.981450
v 0.559712 0.472250 -1.997798
v 0.661688 0.472250 -1.997798
v 0.744188 0.472250 -1.981450
f 417 420 419
f 418 459 460
f 419 420 430
f 419 430 429
f 429 430 440
f 429 440 439
f 439 440 450
f 439 450 449
f 449 450 460
f 449 460 459
f 417 421 420
f 418 460 461
f 420 421 431
f 420 431 430
f 430 431 441
f 430 441 440
f 440 441 451
f 440 451 450
f 450 451 461
f 450 461 460
f 417 422 421
f 418 461 462
f 421 422 432
f 421 432 431
f 431 432 442
f 431 442 441
f 441 442 452
f 441 452 451
f 451 452 462
f 451 462 461
f 417 423 422
f 418 462 463
f 422 423 433
f 422 433 432
f 432 433 443
f 432 443 442
f 442 443 453
f 442 453 452
f 452 453 463
f 452 463 462
f 417 424 423
f 418 463 464
f 423 424 434
f 423 434 433
f 433 434 444
f 433 444 443
f 443 444 454
f 443 454 453
f 453 454 464
f 453 464 463
f 417 425 424
f 418 464 465
f 424 425 435
f 424 435 434
f 434 435 445
f 434 445 444
f 444 445 455
f 444 455 454
f 454 455 465
f 454 465 464
f 417 426 425
f 418 465 466
f 425 426 436
f 425 436 435
f 435 436 446
f 435 446 445
f 445 446 456
f 445 456 455
f 455 456 466
f 455 466 465
f 417 427 426
f 418 466 467
f 426 427 437
f 426 437 436
f 436 437 447
f 436 447 446
f 446 447 457
f 446 457 456
f 456 457 467
f 456 467 466
f 417 428 427
f 418 467 468
f 427 428 438
f 427 438 437
f 437 438 448
f 437 448 447
f 447 448 458
f 447 458 457
f 457 458 468
f 457 468 467
f 417 419 428
f 418 468 459
f 428 419 429
f 428 429 438
f 438 429 439
f 438 439 448
f 448 439 449
f 448 449 458
f 458 449 459
f 458 459 468
o RightEyeWhite
usemtl color_9
s off
v 0.610700 1.160000 -2.050000
v 0.610700 0.460000 -2.050000
v 0.753200 1.113109 -2.050000
v 0.725985 1.113109 -2.026489
v 0.654735 1.113109 -2.011958
v 0.566665 1.113109 -2.011958
v 0.495415 1.113109 -2.026489
v 0.468200 1.113109 -2.050000
v 0.495415 1.113109 -2.073511
v 0.566665 1.113109 -2.088042
v 0.654735 1.113109 -2.088042
v 0.725985 1.113109 -2.073511
v 0.857517 0.985000 -2.050000
v 0.810379 0.985000 -2.009277
v 0.686971 0.985000 -1.984109
v 0.534429 0.985000 -1.984109
v 0.411021 0.985000 -2.009277
v 0.363883 0.985000 -2.050000
v 0.411021 0.985000 -2.090723
v 0.534429 0.985000 -2.115891
v 0.686971 0.985000 -2.115891
v 0.810379 0.985000 -2.090723
v 0.895700 0.810000 -2.050000
v 0.841270 0.810000 -2.002977
v 0.698770 0.810000 -1.973915
v 0.522630 0.810000 -1.973915
v 0.380130 0.810000 -2.002977
v 0.325700 0.810000 -2.050000
v 0.380130 0.810000 -2.097023
v 0.522630 0.810000 -2.126085
v 0.698770 0.810000 -2.126085
v 0.841270 0.810000 -2.097023
v 0.857517 0.635000 -2.050000
v 0.810379 0.635000 -2.009277
v 0.686971 0.635000 -1.984109
v 0.534429 0.635000 -1.984109
v 0.411021 0.635000 -2.009277
v 0.363883 0.635000 -2.050000
v 0.411021 0.635000 -2.090723
v 0.534429 0.635000 -2.115891
v 0.686971 0.635000 -2.115891
v 0.810379 0.635000 -2.090723
v 0.753200 0.506891 -2.050000
v 0.725985 0.506891 -2.026489
v 0.654735 0.506891 -2.011958
v 0.566665 0.506891 -2.011958
v 0.495415 0.506891 -2.026489
v 0.468200 0.506891 -2.050000
v 0.495415 0.506891 -2.073511
v 0.566665 0.506891 -2.088042
v 0.654735 0.506891 -2.088042
v 0.725985 0.506891 -2.073511
f 469 472 471
f 470 511 512
f 471 472 482
f 471 482 481
f 481 482 492
f 481 492 491
f 491 492 502
f 491 502 501
f 501 502 512
f 501 512 511
f 469 473 472
f 470 512 513
f 472 473 483
f 472 483 482
f 482 483 493
f 482 493 492
f 492 493 503
f 492 503 502
f 502 503 513
f 502 513 512
f 469 474 473
f 470 513 514
f 473 474 484
f 473 484 483
f 483 484 494
f 483 494 493
f 493 494 504
f 493 504 503
f 503 504 514
f 503 514 513
f 469 475 474
f 470 514 515
f 474 475 485
f 474 485 484
f 484 485 495
f 484 495 494
f 494 495 505
f 494 505 504
f 504 505 515
f 504 515 514
f 469 476 475
f 470 515 516
f 475 476 486
f 475 486 485
f 485 486 496
f 485 496 495
f 495 496 506
f 495 506 505
f 505 506 516
f 505 516 515
f 469 477 476
f 470 516 517
f 476 477 487
f 476 487 486
f 486 487 497
f 486 497 496
f 496 497 507
f 496 507 506
f 506 507 517
f 506 517 516
f 469 478 477
f 470 517 518
f 477 478 488
f 477 488 487
f 487 488 498
f 487 498 497
f 497 498 508
f 497 508 507
f 507 508 518
f 507 518 517
f 469 479 478
f 470 518 519
f 478 479 489
f 478 489 488
f 488 489 499
f 488 499 498
f 498 499 509
f 498 509 508
f 508 509 519
f 508 519 518
f 469 480 479
f 470 519 520
f 479 480 490
f 479 490 489
f 489 490 500
f 489 500 499
f 499 500 510
f 499 510 509
f 509 510 520
f 509 520 519
f 469 471 480
f 470 520 511
f 480 471 481
f 480 481 490
f 490 481 491
f 490 491 500
f 500 491 501
f 500 501 510
f 510 501 511
f 510 511 520
o RightIris
usemtl color_10
s off
v 0.585700 1.100000 -2.140000
v 0.585700 0.520000 -2.140000
v 0.683200 1.061147 -2.140000
v 0.664579 1.061147 -2.120897
v 0.615829 1.061147 -2.109091
v 0.555571 1.061147 -2.109091
v 0.506821 1.061147 -2.120897
v 0.488200 1.061147 -2.140000
v 0.506821 1.061147 -2.159103
v 0.555571 1.061147 -2.170909
v 0.615829 1.061147 -2.170909
v 0.664579 1.061147 -2.159103
v 0.754575 0.955000 -2.140000
v 0.722323 0.955000 -2.106913
v 0.637885 0.955000 -2.086463
v 0.533515 0.955000 -2.086463
v 0.449077 0.955000 -2.106913
v 0.416825 0.955000 -2.140000
v 0.449077 0.955000 -2.173087
v 0.533515 0.955000 -2.193537
v 0.637885 0.955000 -2.193537
v 0.722323 0.955000 -2.173087
v 0.780700 0.810000 -2.140000
v 0.743458 0.810000 -2.101794
v 0.645958 0.810000 -2.078181
v 0.525442 0.810000 -2.078181
v 0.427942 0.810000 -2.101794
v 0.390700 0.810000 -2.140000
v 0.427942 0.810000 -2.178206
v 0.525442 0.810000 -2.201819
v 0.645958 0.810000 -2.201819
v 0.743458 0.810000 -2.178206
v 0.754575 0.665000 -2.140000
v 0.722323 0.665000 -2.106913
v 0.637885 0.665000 -2.086463
v 0.533515 0.665000 -2.086463
v 0.449077 0.665000 -2.106913
v 0.416825 0.665000 -2.140000
v 0.449077 0.665000 -2.173087
v 0.533515 0.665000 -2.193537
v 0.637885 0.665000 -2.193537
v 0.722323 0.665000 -2.173087
v 0.683200 0.558853 -2.140000
v 0.664579 0.558853 -2.120897
v 0.615829 0.558853 -2.109091
v 0.555571 0.558853 -2.109091
v 0.506821 0.558853 -2.120897
v 0.488200 0.558853 -2.140000
v 0.506821 0.558853 -2.159103
v 0.555571 0.558853 -2.170909
v 0.615829 0.558853 -2.170909
v 0.664579 0.558853 -2.159103
f 521 524 523
f 522 563 564
f 523 524 534
f 523 534 533
f 533 534 544
f 533 544 543
f 543 544 554
f 543 554 553
f 553 554 564
f 553 564 563
f 521 525 524
f 522 564 565
f 524 525 535
f 524 535 534
f 534 535 545
f 534 545 544
f 544 545 555
f 544 555 554
f 554 555 565
f 554 565 564
f 521 526 525
f 522 565 566
f 525 526 536
f 525 536 535
f 535 536 546
f 535 546 545
f 545 546 556
f 545 556 555
f 555 556 566
f 555 566 565
f 521 527 526
f 522 566 567
f 526 527 537
f 526 537 536
f 536 537 547
f 536 547 546
f 546 547 557
f 546 557 556
f 556 557 567
f 556 567 566
f 521 528 527
f 522 567 568
f 527 528 538
f 527 538 537
f 537 538 548
f 537 548 547
f 547 548 558
f 547 558 557
f 557 558 568
f 557 568 567
f 521 529 528
f 522 568 569
f 528 529 539
f 528 539 538
f 538 539 549
f 538 549 548
f 548 549 559
f 548 559 558
f 558 559 569
f 558 569 568
f 521 530 529
f 522 569 570
f 529 530 540
f 529 540 539
f 539 540 550
f 539 550 549
f 549 550 560
f 549 560 559
f 559 560 570
f 559 570 569
f 521 531 530
f 522 570 571
f 530 531 541
f 530 541 540
f 540 541 551
f 540 551 550
f 550 551 561
f 550 561 560
f 560 561 571
f 560 571 570
f 521 532 531
f 522 571 572
f 531 532 542
f 531 542 541
f 541 542 552
f 541 552 551
f 551 552 562
f 551 562 561
f 561 562 572
f 561 572 571
f 521 523 532
f 522 572 563
f 532 523 533
f 532 533 542
f 542 533 543
f 542 543 552
f 552 543 553
f 552 553 562
f 562 553 563
f 562 563 572
o RightPupil
usemtl color_11
s off
v 0.580700 1.030000 -2.195000
v 0.580700 0.590000 -2.195000
v 0.640700 1.000526 -2.195000
v 0.629241 1.000526 -2.183244
v 0.599241 1.000526 -2.175979
v 0.562159 1.000526 -2.175979
v 0.532159 1.000526 -2.183244
v 0.520700 1.000526 -2.195000
v 0.532159 1.000526 -2.206756
v 0.562159 1.000526 -2.214021
v 0.599241 1.000526 -2.214021
v 0.629241 1.000526 -2.206756
v 0.684623 0.920000 -2.195000
v 0.664776 0.920000 -2.174639
v 0.612814 0.920000 -2.162054
v 0.548586 0.920000 -2.162054
v 0.496624 0.920000 -2.174639
v 0.476777 0.920000 -2.195000
v 0.496624 0.920000 -2.215361
v 0.548586 0.920000 -2.227946
v 0.612814 0.920000 -2.227946
v 0.664776 0.920000 -2.215361
v 0.700700 0.810000 -2.195000
v 0.677782 0.810000 -2.171489
v 0.617782 0.810000 -2.156958
v 0.543618 0.810000 -2.156958
v 0.483618 0.810000 -2.171489
v 0.460700 0.810000 -2.195000
v 0.483618 0.810000 -2.218511
v 0.543618 0.810000 -2.233042
v 0.617782 0.810000 -2.233042
v 0.677782 0.810000 -2.218511
v 0.684623 0.700000 -2.195000
v 0.664776 0.700000 -2.174639
v 0.612814 0.700000 -2.162054
v 0.548586 0.700000 -2.162054
v 0.496624 0.700000 -2.174639
v 0.476777 0.700000 -2.195000
v 0.496624 0.700000 -2.215361
v 0.548586 0.700000 -2.227946
v 0.612814 0.700000 -2.227946
v 0.664776 0.700000 -2.215361
v 0.640700 0.619474 -2.195000
v 0.629241 0.619474 -2.183244
v 0.599241 0.619474 -2.175979
v 0.562159 0.619474 -2.175979
v 0.532159 0.619474 -2.183244
v 0.520700 0.619474 -2.195000
v 0.532159 0.619474 -2.206756
v 0.562159 0.619474 -2.214021
v 0.599241 0.619474 -2.214021
v 0.629241 0.619474 -2.206756
f 573 576 575
f 574 615 616
f 575 576 586
f 575 586 585
f 585 586 596
f 585 596 595
f 595 596 606
f 595 606 605
f 605 606 616
f 605 616 615
f 573 577 576
f 574 616 617
f 576 577 587
f 576 587 586
f 586 587 597
f 586 597 596
f 596 597 607
f 596 607 606
f 606 607 617
f 606 617 616
f 573 578 577
f 574 617 618
f 577 578 588
f 577 588 587
f 587 588 598
f 587 598 597
f 597 598 608
f 597 608 607
f 607 608 618
f 607 618 617
f 573 579 578
f 574 618 619
f 578 579 589
f 578 589 588
f 588 589 599
f 588 599 598
f 598 599 609
f 598 609 608
f 608 609 619
f 608 619 618
f 573 580 579
f 574 619 620
f 579 580 590
f 579 590 589
f 589 590 600
f 589 600 599
f 599 600 610
f 599 610 609
f 609 610 620
f 609 620 619
f 573 581 580
f 574 620 621
f 580 581 591
f 580 591 590
f 590 591 601
f 590 601 600
f 600 601 611
f 600 611 610
f 610 611 621
f 610 621 620
f 573 582 581
f 574 621 622
f 581 582 592
f 581 592 591
f 591 592 602
f 591 602 601
f 601 602 612
f 601 612 611
f 611 612 622
f 611 622 621
f 573 583 582
f 574 622 623
f 582 583 593
f 582 593 592
f 592 593 603
f 592 603 602
f 602 603 613
f 602 613 612
f 612 613 623
f 612 623 622
f 573 584 583
f 574 623 624
f 583 584 594
f 583 594 593
f 593 594 604
f 593 604 603
f 603 604 614
f 603 614 613
f 613 614 624
f 613 624 623
f 573 575 584
f 574 624 615
f 584 575 585
f 584 585 594
f 594 585 595
f 594 595 604
f 604 595 605
f 604 605 614
f 614 605 615
f 614 615 624
o RightShine
usemtl color_12
s off
v 0.510700 1.060000 -2.243000
v 0.510700 0.900000 -2.243000
v 0.540700 1.049282 -2.243000
v 0.534971 1.049282 -2.236387
v 0.519971 1.049282 -2.232301
v 0.501429 1.049282 -2.232301
v 0.486429 1.049282 -2.236387
v 0.480700 1.049282 -2.243000
v 0.486429 1.049282 -2.249613
v 0.501429 1.049282 -2.253699
v 0.519971 1.049282 -2.253699
v 0.534971 1.049282 -2.249613
v 0.562662 1.020000 -2.243000
v 0.552738 1.020000 -2.231547
v 0.526757 1.020000 -2.224468
v 0.494643 1.020000 -2.224468
v 0.468662 1.020000 -2.231547
v 0.458738 1.020000 -2.243000
v 0.468662 1.020000 -2.254453
v 0.494643 1.020000 -2.261532
v 0.526757 1.020000 -2.261532
v 0.552738 1.020000 -2.254453
v 0.570700 0.980000 -2.243000
v 0.559241 0.980000 -2.229775
v 0.529241 0.980000 -2.221601
v 0.492159 0.980000 -2.221601
v 0.462159 0.980000 -2.229775
v 0.450700 0.980000 -2.243000
v 0.462159 0.980000 -2.256225
v 0.492159 0.980000 -2.264399
v 0.529241 0.980000 -2.264399
v 0.559241 0.980000 -2.256225
v 0.562662 0.940000 -2.243000
v 0.552738 0.940000 -2.231547
v 0.526757 0.940000 -2.224468
v 0.494643 0.940000 -2.224468
v 0.468662 0.940000 -2.231547
v 0.458738 0.940000 -2.243000
v 0.468662 0.940000 -2.254453
v 0.494643 0.940000 -2.261532
v 0.526757 0.940000 -2.261532
v 0.552738 0.940000 -2.254453
v 0.540700 0.910718 -2.243000
v 0.534971 0.910718 -2.236387
v 0.519971 0.910718 -2.232301
v 0.501429 0.910718 -2.232301
v 0.486429 0.910718 -2.236387
v 0.480700 0.910718 -2.243000
v 0.486429 0.910718 -2.249613
v 0.501429 0.910718 -2.253699
v 0.519971 0.910718 -2.253699
v 0.534971 0.910718 -2.249613
f 625 628 627
f 626 667 668
f 627 628 638
f 627 638 637
f 637 638 648
f 637 648 647
f 647 648 658
f 647 658 657
f 657 658 668
f 657 668 667
f 625 629 628
f 626 668 669
f 628 629 639
f 628 639 638
f 638 639 649
f 638 649 648
f 648 649 659
f 648 659 658
f 658 659 669
f 658 669 668
f 625 630 629
f 626 669 670
f 629 630 640
f 629 640 639
f 639 640 650
f 639 650 649
f 649 650 660
f 649 660 659
f 659 660 670
f 659 670 669
f 625 631 630
f 626 670 671
f 630 631 641
f 630 641 640
f 640 641 651
f 640 651 650
f 650 651 661
f 650 661 660
f 660 661 671
f 660 671 670
f 625 632 631
f 626 671 672
f 631 632 642
f 631 642 641
f 641 642 652
f 641 652 651
f 651 652 662
f 651 662 661
f 661 662 672
f 661 672 671
f 625 633 632
f 626 672 673
f 632 633 643
f 632 643 642
f 642 643 653
f 642 653 652
f 652 653 663
f 652 663 662
f 662 663 673
f 662 673 672
f 625 634 633
f 626 673 674
f 633 634 644
f 633 644 643
f 643 644 654
f 643 654 653
f 653 654 664
f 653 664 663
f 663 664 674
f 663 674 673
f 625 635 634
f 626 674 675
f 634 635 645
f 634 645 644
f 644 645 655
f 644 655 654
f 654 655 665
f 654 665 664
f 664 665 675
f 664 675 674
f 625 636 635
f 626 675 676
f 635 636 646
f 635 646 645
f 645 646 656
f 645 656 655
f 655 656 666
f 655 666 665
f 665 666 676
f 665 676 675
f 625 627 636
f 626 676 667
f 636 627 637
f 636 637 646
f 646 637 647
f 646 647 656
f 656 647 657
f 656 657 666
f 666 657 667
f 666 667 676
o Beak
usemtl color_13
s off
v 0.375000 -0.010000 -1.880000
v -0.375000 -0.010000 -1.880000
v 0.375000 -0.010000 -2.460000
v -0.375000 -0.010000 -2.460000
v 0.375000 0.470000 -2.460000
v -0.375000 0.470000 -2.460000
f 677 678 680
f 677 680 679
f 679 680 682
f 679 682 681
f 677 681 682
f 677 682 678
f 677 679 681
f 678 682 680
o LeftBackLeg
usemtl color_14
s off
v -0.500000 -0.900000 0.300000
v -0.500000 -1.400000 0.300000
v -0.442500 -0.933494 0.300000
v -0.453482 -0.933494 0.336737
v -0.482232 -0.933494 0.359441
v -0.517768 -0.933494 0.359441
v -0.546518 -0.933494 0.336737
v -0.557500 -0.933494 0.300000
v -0.546518 -0.933494 0.263263
v -0.517768 -0.933494 0.240559
v -0.482232 -0.933494 0.240559
v -0.453482 -0.933494 0.263263
v -0.400407 -1.025000 0.300000
v -0.419428 -1.025000 0.363630
v -0.469224 -1.025000 0.402955
v -0.530776 -1.025000 0.402955
v -0.580572 -1.025000 0.363630
v -0.599593 -1.025000 0.300000
v -0.580572 -1.025000 0.236370
v -0.530776 -1.025000 0.197045
v -0.469224 -1.025000 0.197045
v -0.419428 -1.025000 0.236370
v -0.385000 -1.150000 0.300000
v -0.406963 -1.150000 0.373473
v -0.464463 -1.150000 0.418882
v -0.535537 -1.150000 0.418882
v -0.593037 -1.150000 0.373473
v -0.615000 -1.150000 0.300000
v -0.593037 -1.150000 0.226527
v -0.535537 -1.150000 0.181118
v -0.464463 -1.150000 0.181118
v -0.406963 -1.150000 0.226527
v -0.400407 -1.275000 0.300000
v -0.419428 -1.275000 0.363630
v -0.469224 -1.275000 0.402955
v -0.530776 -1.275000 0.402955
v -0.580572 -1.275000 0.363630
v -0.599593 -1.275000 0.300000
v -0.580572 -1.275000 0.236370
v -0.530776 -1.275000 0.197045
v -0.469224 -1.275000 0.197045
v -0.419428 -1.275000 0.236370
v -0.442500 -1.366506 0.300000
v -0.453482 -1.366506 0.336737
v -0.482232 -1.366506 0.359441
v -0.517768 -1.366506 0.359441
v -0.546518 -1.366506 0.336737
v -0.557500 -1.366506 0.300000
v -0.546518 -1.366506 0.263263
v -0.517768 -1.366506 0.240559
v -0.482232 -1.366506 0.240559
v -0.453482 -1.366506 0.263263
f 683 686 685
f 684 725 726
f 685 686 696
f 685 696 695
f 695 696 706
f 695 706 705
f 705 706 716
f 705 716 715
f 715 716 726
f 715 726 725
f 683 687 686
f 684 726 727
f 686 687 697
f 686 697 696
f 696 697 707
f 696 707 706
f 706 707 717
f 706 717 716
f 716 717 727
f 716 727 726
f 683 688 687
f 684 727 728
f 687 688 698
f 687 698 697
f 697 698 708
f 697 708 707
f 707 708 718
f 707 718 717
f 717 718 728
f 717 728 727
f 683 689 688
f 684 728 729
f 688 689 699
f 688 699 698
f 698 699 709
f 698 709 708
f 708 709 719
f 708 719 718
f 718 719 729
f 718 729 728
f 683 690 689
f 684 729 730
f 689 690 700
f 689 700 699
f 699 700 710
f 699 710 709
f 709 710 720
f 709 720 719
f 719 720 730
f 719 730 729
f 683 691 690
f 684 730 731
f 690 691 701
f 690 701 700
f 700 701 711
f 700 711 710
f 710 711 721
f 710 721 720
f 720 721 731
f 720 731 730
f 683 692 691
f 684 731 732
f 691 692 702
f 691 702 701
f 701 702 712
f 701 712 711
f 711 712 722
f 711 722 721
f 721 722 732
f 721 732 731
f 683 693 692
f 684 732 733
f 692 693 703
f 692 703 702
f 702 703 713
f 702 713 712
f 712 713 723
f 712 723 722
f 722 723 733
f 722 733 732
f 683 694 693
f 684 733 734
f 693 694 704
f 693 704 703
f 703 704 714
f 703 714 713
f 713 714 724
f 713 724 723
f 723 724 734
f 723 734 733
f 683 685 694
f 684 734 725
f 694 685 695
f 694 695 704
f 704 695 705
f 704 705 714
f 714 705 715
f 714 715 724
f 724 715 725
f 724 725 734
o LeftBackPaw
usemtl color_15
s off
v -0.500000 -1.310000 0.130000
v -0.500000 -1.490000 0.130000
v -0.395000 -1.322058 0.130000
v -0.415053 -1.322058 0.225515
v -0.467553 -1.322058 0.284547
v -0.532447 -1.322058 0.284547
v -0.584947 -1.322058 0.225515
v -0.605000 -1.322058 0.130000
v -0.584947 -1.322058 0.034485
v -0.532447 -1.322058 -0.024547
v -0.467553 -1.322058 -0.024547
v -0.415053 -1.322058 0.034485
v -0.318135 -1.355000 0.130000
v -0.352868 -1.355000 0.295437
v -0.443801 -1.355000 0.397683
v -0.556199 -1.355000 0.397683
v -0.647132 -1.355000 0.295437
v -0.681865 -1.355000 0.130000
v -0.647132 -1.355000 -0.035437
v -0.556199 -1.355000 -0.137683
v -0.443801 -1.355000 -0.137683
v -0.352868 -1.355000 -0.035437
v -0.290000 -1.400000 0.130000
v -0.330106 -1.400000 0.321030
v -0.435106 -1.400000 0.439093
v -0.564894 -1.400000 0.439093
v -0.669894 -1.400000 0.321030
v -0.710000 -1.400000 0.130000
v -0.669894 -1.400000 -0.061030
v -0.564894 -1.400000 -0.179093
v -0.435106 -1.400000 -0.179093
v -0.330106 -1.400000 -0.061030
v -0.318135 -1.445000 0.130000
v -0.352868 -1.445000 0.295437
v -0.443801 -1.445000 0.397683
v -0.556199 -1.445000 0.397683
v -0.647132 -1.445000 0.295437
v -0.681865 -1.445000 0.130000
v -0.647132 -1.445000 -0.035437
v -0.556199 -1.445000 -0.137683
v -0.443801 -1.445000 -0.137683
v -0.352868 -1.445000 -0.035437
v -0.395000 -1.477942 0.130000
v -0.415053 -1.477942 0.225515
v -0.467553 -1.477942 0.284547
v -0.532447 -1.477942 0.284547
v -0.584947 -1.477942 0.225515
v -0.605000 -1.477942 0.130000
v -0.584947 -1.477942 0.034485
v -0.532447 -1.477942 -0.024547
v -0.467553 -1.477942 -0.024547
v -0.415053 -1.477942 0.034485
f 735 738 737
f 736 777 778
f 737 738 748
f 737 748 747
f 747 748 758
f 747 758 757
f 757 758 768
f 757 768 767
f 767 768 778
f 767 778 777
f 735 739 738
f 736 778 779
f 738 739 749
f 738 749 748
f 748 749 759
f 748 759 758
f 758 759 769
f 758 769 768
f 768 769 779
f 768 779 778
f 735 740 739
f 736 779 780
f 739 740 750
f 739 750 749
f 749 750 760
f 749 760 759
f 759 760 770
f 759 770 769
f 769 770 780
f 769 780 779
f 735 741 740
f 736 780 781
f 740 741 751
f 740 751 750
f 750 751 761
f 750 761 760
f 760 761 771
f 760 771 770
f 770 771 781
f 770 781 780
f 735 742 741
f 736 781 782
f 741 742 752
f 741 752 751
f 751 752 762
f 751 762 761
f 761 762 772
f 761 772 771
f 771 772 782
f 771 782 781
f 735 743 742
f 736 782 783
f 742 743 753
f 742 753 752
f 752 753 763
f 752 763 762
f 762 763 773
f 762 773 772
f 772 773 783
f 772 783 782
f 735 744 743
f 736 783 784
f 743 744 754
f 743 754 753
f 753 754 764
f 753 764 763
f 763 764 774
f 763 774 773
f 773 774 784
f 773 784 783
f 735 745 744
f 736 784 785
f 744 745 755
f 744 755 754
f 754 755 765
f 754 765 764
f 764 765 775
f 764 775 774
f 774 775 785
f 774 785 784
f 735 746 745
f 736 785 786
f 745 746 756
f 745 756 755
f 755 756 766
f 755 766 765
f 765 766 776
f 765 776 775
f 775 776 786
f 775 786 785
f 735 737 746
f 736 786 777
f 746 737 747
f 746 747 756
f 756 747 757
f 756 757 766
f 766 757 767
f 766 767 776
f 776 767 777
f 776 777 786
o LeftWing
usemtl color_16
s off
v -1.191077 0.262614 0.014997
v -1.208923 0.137386 -0.014997
v -1.052546 0.223512 0.058081
v -1.141100 0.197482 0.219452
v -1.249200 0.193125 0.301961
v -1.335556 0.212107 0.274092
v -1.367182 0.247176 0.146490
v -1.331998 0.284938 -0.032105
v -1.243444 0.310969 -0.193477
v -1.135344 0.315325 -0.275985
v -1.048989 0.296343 -0.248116
v -1.017363 0.261274 -0.120515
v -0.953526 0.178110 0.085602
v -1.106906 0.133024 0.365105
v -1.294141 0.125479 0.508014
v -1.443713 0.158356 0.459744
v -1.498491 0.219098 0.238731
v -1.437551 0.284503 -0.070605
v -1.284171 0.329589 -0.350108
v -1.096936 0.337135 -0.493018
v -0.947364 0.304258 -0.444747
v -0.892586 0.243516 -0.223734
v -0.920548 0.138574 0.090186
v -1.097656 0.086513 0.412928
v -1.313856 0.077800 0.577946
v -1.486567 0.115763 0.522208
v -1.549819 0.185902 0.267004
v -1.479452 0.261426 -0.090186
v -1.302344 0.313487 -0.412928
v -1.086144 0.322200 -0.577946
v -0.913433 0.284237 -0.522208
v -0.850181 0.214098 -0.267004
v -0.962449 0.115497 0.070605
v -1.115829 0.070411 0.350108
v -1.303064 0.062865 0.493018
v -1.452636 0.095742 0.444747
v -1.507414 0.156484 0.223734
v -1.446474 0.221890 -0.085602
v -1.293094 0.266976 -0.365105
v -1.105859 0.274521 -0.508014
v -0.956287 0.241644 -0.459744
v -0.901509 0.180902 -0.238731
v -1.068002 0.115062 0.032105
v -1.156556 0.089031 0.193477
v -1.264656 0.084675 0.275985
v -1.351011 0.103657 0.248116
v -1.382637 0.138726 0.120515
v -1.347454 0.176488 -0.058081
v -1.258900 0.202518 -0.219452
v -1.150800 0.206875 -0.301961
v -1.064444 0.187893 -0.274092
v -1.032818 0.152824 -0.146490
f 787 790 789
f 788 829 830
f 789 790 800
f 789 800 799
f 799 800 810
f 799 810 809
f 809 810 820
f 809 820 819
f 819 820 830
f 819 830 829
f 787 791 790
f 788 830 831
f 790 791 801
f 790 801 800
f 800 801 811
f 800 811 810
f 810 811 821
f 810 821 820
f 820 821 831
f 820 831 830
f 787 792 791
f 788 831 832
f 791 792 802
f 791 802 801
f 801 802 812
f 801 812 811
f 811 812 822
f 811 822 821
f 821 822 832
f 821 832 831
f 787 793 792
f 788 832 833
f 792 793 803
f 792 803 802
f 802 803 813
f 802 813 812
f 812 813 823
f 812 823 822
f 822 823 833
f 822 833 832
f 787 794 793
f 788 833 834
f 793 794 804
f 793 804 803
f 803 804 814
f 803 814 813
f 813 814 824
f 813 824 823
f 823 824 834
f 823 834 833
f 787 795 794
f 788 834 835
f 794 795 805
f 794 805 804
f 804 805 815
f 804 815 814
f 814 815 825
f 814 825 824
f 824 825 835
f 824 835 834
f 787 796 795
f 788 835 836
f 795 796 806
f 795 806 805
f 805 806 816
f 805 816 815
f 815 816 826
f 815 826 825
f 825 826 836
f 825 836 835
f 787 797 796
f 788 836 837
f 796 797 807
f 796 807 806
f 806 807 817
f 806 817 816
f 816 817 827
f 816 827 826
f 826 827 837
f 826 837 836
f 787 798 797
f 788 837 838
f 797 798 808
f 797 808 807
f 807 808 818
f 807 818 817
f 817 818 828
f 817 828 827
f 827 828 838
f 827 838 837
f 787 789 798
f 788 838 829
f 798 789 799
f 798 799 808
f 808 799 809
f 808 809 818
f 818 809 819
f 818 819 828
f 828 819 829
f 828 829 838
o LeftWingVein
usemtl color_17
s off
v -1.076687 0.323904 -0.416825
v -1.034769 0.314690 -0.403297
v -1.028592 0.358038 -0.392915
v -1.070510 0.367252 -0.406443
v -1.371408 0.171962 0.392915
v -1.329490 0.162748 0.406443
v -1.323313 0.206096 0.416825
v -1.365231 0.215310 0.403297
f 839 842 841
f 839 841 840
f 843 844 845
f 843 845 846
f 839 843 846
f 839 846 842
f 840 841 845
f 840 845 844
f 842 846 845
f 842 845 841
f 839 840 844
f 839 844 843
o LeftWingLeaf
usemtl color_18
s off
v -1.210567 0.308530 -0.428419
v -1.726372 0.287319 -0.054385
v -1.769433 0.091470 0.668419
v -1.197742 0.134387 0.184701
v -1.452017 0.272684 0.082510
v -1.472097 0.149022 0.047806
f 847 848 851
f 848 847 852
f 848 849 851
f 849 848 852
f 849 850 851
f 850 849 852
f 850 847 851
f 847 850 852
o LeftWingLeafVein
usemtl color_19
s off
v -1.317696 0.325303 -0.278865
v -1.278048 0.313833 -0.260934
v -1.271098 0.356639 -0.248921
v -1.310745 0.368109 -0.266853
v -1.708902 0.173361 0.488921
v -1.669255 0.161891 0.506853
v -1.662304 0.204697 0.518865
v -1.701952 0.216167 0.500934
f 853 856 855
f 853 855 854
f 857 858 859
f 857 859 860
f 853 857 860
f 853 860 856
f 854 855 859
f 854 859 858
f 856 860 859
f 856 859 855
f 853 854 858
f 853 858 857
o LeftWingLeaf_1
usemtl color_20
s off
v -1.435814 0.308530 -0.270277
v -1.991122 0.302150 0.042771
v -2.124186 0.091470 0.750277
v -1.500041 0.119556 0.335174
v -1.734932 0.271733 0.209104
v -1.756231 0.149974 0.168841
f 861 862 865
f 862 861 866
f 862 863 865
f 863 862 866
f 863 864 865
f 864 863 866
f 864 861 865
f 861 864 866
o LeftWingLeafVein_1
usemtl color_21
s off
v -1.561172 0.326745 -0.135127
v -1.524341 0.313050 -0.113197
v -1.516968 0.355198 -0.099260
v -1.553799 0.368892 -0.121190
v -2.043032 0.174802 0.579260
v -2.006201 0.161108 0.601190
v -1.998828 0.203255 0.615127
v -2.035659 0.216950 0.593197
f 867 870 869
f 867 869 868
f 871 872 873
f 871 873 874
f 867 871 874
f 867 874 870
f 868 869 873
f 868 873 872
f 870 874 873
f 870 873 869
f 867 868 872
f 867 872 871
o LeftWingLeaf_2
usemtl color_22
s off
v -1.666192 0.308530 -0.104527
v -2.253242 0.316730 0.143892
v -2.473808 0.091470 0.824527
v -1.805997 0.104976 0.483203
v -2.018952 0.270614 0.336782
v -2.040286 0.151092 0.290312
f 875 876 879
f 876 875 880
f 876 877 879
f 877 876 880
f 877 878 879
f 878 877 880
f 878 875 879
f 875 878 880
o LeftWingLeafVein_2
usemtl color_23
s off
v -1.807799 0.328225 0.014064
v -1.774255 0.312344 0.039512
v -1.766871 0.353717 0.055598
v -1.800414 0.369598 0.030150
v -2.373129 0.176283 0.664402
v -2.339586 0.160402 0.689850
v -2.332201 0.201775 0.705936
v -2.365745 0.217656 0.680488
f 881 884 883
f 881 883 882
f 885 886 887
f 885 887 888
f 881 885 888
f 881 888 884
f 882 883 887
f 882 887 886
f 884 888 887
f 884 887 883
f 881 882 886
f 881 886 885
o LeftWingLeaf_3
usemtl color_24
s off
v -1.089485 0.438530 -0.348385
v -1.558400 0.402279 0.081975
v -1.510515 0.221470 0.808385
v -0.999497 0.279427 0.262347
v -1.270025 0.403467 0.187158
v -1.287872 0.278239 0.157165
f 889 890 893
f 890 889 894
f 890 891 893
f 891 890 894
f 891 892 893
f 892 891 894
f 892 889 893
f 889 892 894
o LeftWingLeafVein_3
usemtl color_25
s off
v -1.176687 0.453904 -0.186825
v -1.134769 0.444690 -0.173297
v -1.128592 0.488038 -0.162915
v -1.170510 0.497252 -0.176443
v -1.471408 0.301962 0.622915
v -1.429490 0.292748 0.636443
v -1.423313 0.336096 0.646825
v -1.465231 0.345310 0.633297
f 895 898 897
f 895 897 896
f 899 900 901
f 899 901 902
f 895 899 902
f 895 902 898
f 896 897 901
f 896 901 900
f 898 902 901
f 898 901 897
f 895 896 900
f 895 900 899
o LeftWingLeaf_4
usemtl color_26
s off
v -1.310567 0.438530 -0.198419
v -1.826372 0.417319 0.175615
v -1.869433 0.221470 0.898419
v -1.297742 0.264387 0.414701
v -1.552017 0.402684 0.312510
v -1.572097 0.279022 0.277806
f 903 904 907
f 904 903 908
f 904 905 907
f 905 904 908
f 905 906 907
f 906 905 908
f 906 903 907
f 903 906 908
o LeftWingLeafVein_4
usemtl color_27
s off
v -1.417696 0.455303 -0.048865
v -1.378048 0.443833 -0.030934
v -1.371098 0.486639 -0.018921
v -1.410745 0.498109 -0.036853
v -1.808902 0.303361 0.718921
v -1.769255 0.291891 0.736853
v -1.762304 0.334697 0.748865
v -1.801952 0.346167 0.730934
f 909 912 911
f 909 911 910
f 913 914 915
f 913 915 916
f 909 913 916
f 909 916 912
f 910 911 915
f 910 915 914
f 912 916 915
f 912 915 911
f 909 910 914
f 909 914 913
o LeftWingLeaf_5
usemtl color_28
s off
v -1.535814 0.438530 -0.040277
v -2.091122 0.432150 0.272771
v -2.224186 0.221470 0.980277
v -1.600041 0.249556 0.565174
v -1.834932 0.401733 0.439104
v -1.856231 0.279974 0.398841
f 917 918 921
f 918 917 922
f 918 919 921
f 919 918 922
f 919 920 921
f 920 919 922
f 920 917 921
f 917 920 922
o LeftWingLeafVein_5
usemtl color_29
s off
v -1.661172 0.456745 0.094873
v -1.624341 0.443050 0.116803
v -1.616968 0.485198 0.130740
v -1.653799 0.498892 0.108810
v -2.143032 0.304802 0.809260
v -2.106201 0.291108 0.831190
v -2.098828 0.333255 0.845127
v -2.135659 0.346950 0.823197
f 923 926 925
f 923 925 924
f 927 928 929
f 927 929 930
f 923 927 930
f 923 930 926
f 924 925 929
f 924 929 928
f 926 930 929
f 926 929 925
f 923 924 928
f 923 928 927
o LeftWingLeaf_6
usemtl color_30
s off
v -1.766192 0.438530 0.125473
v -2.353242 0.446730 0.373892
v -2.573808 0.221470 1.054527
v -1.905997 0.234976 0.713203
v -2.118952 0.400614 0.566782
v -2.140286 0.281092 0.520312
f 931 932 935
f 932 931 936
f 932 933 935
f 933 932 936
f 933 934 935
f 934 933 936
f 934 931 935
f 931 934 936
o LeftWingLeafVein_6
usemtl color_31
s off
v -1.907799 0.458225 0.244064
v -1.874255 0.442344 0.269512
v -1.866871 0.483717 0.285598
v -1.900414 0.499598 0.260150
v -2.473129 0.306283 0.894402
v -2.439586 0.290402 0.919850
v -2.432201 0.331775 0.935936
v -2.465745 0.347656 0.910488
f 937 940 939
f 937 939 938
f 941 942 943
f 941 943 944
f 937 941 944
f 937 944 940
f 938 939 943
f 938 943 942
f 940 944 943
f 940 943 939
f 937 938 942
f 937 942 941
o RightBackLeg
usemtl color_32
s off
v 0.500000 -0.900000 0.300000
v 0.500000 -1.400000 0.300000
v 0.557500 -0.933494 0.300000
v 0.546518 -0.933494 0.336737
v 0.517768 -0.933494 0.359441
v 0.482232 -0.933494 0.359441
v 0.453482 -0.933494 0.336737
v 0.442500 -0.933494 0.300000
v 0.453482 -0.933494 0.263263
v 0.482232 -0.933494 0.240559
v 0.517768 -0.933494 0.240559
v 0.546518 -0.933494 0.263263
v 0.599593 -1.025000 0.300000
v 0.580572 -1.025000 0.363630
v 0.530776 -1.025000 0.402955
v 0.469224 -1.025000 0.402955
v 0.419428 -1.025000 0.363630
v 0.400407 -1.025000 0.300000
v 0.419428 -1.025000 0.236370
v 0.469224 -1.025000 0.197045
v 0.530776 -1.025000 0.197045
v 0.580572 -1.025000 0.236370
v 0.615000 -1.150000 0.300000
v 0.593037 -1.150000 0.373473
v 0.535537 -1.150000 0.418882
v 0.464463 -1.150000 0.418882
v 0.406963 -1.150000 0.373473
v 0.385000 -1.150000 0.300000
v 0.406963 -1.150000 0.226527
v 0.464463 -1.150000 0.181118
v 0.535537 -1.150000 0.181118
v 0.593037 -1.150000 0.226527
v 0.599593 -1.275000 0.300000
v 0.580572 -1.275000 0.363630
v 0.530776 -1.275000 0.402955
v 0.469224 -1.275000 0.402955
v 0.419428 -1.275000 0.363630
v 0.400407 -1.275000 0.300000
v 0.419428 -1.275000 0.236370
v 0.469224 -1.275000 0.197045
v 0.530776 -1.275000 0.197045
v 0.580572 -1.275000 0.236370
v 0.557500 -1.366506 0.300000
v 0.546518 -1.366506 0.336737
v 0.517768 -1.366506 0.359441
v 0.482232 -1.366506 0.359441
v 0.453482 -1.366506 0.336737
v 0.442500 -1.366506 0.300000
v 0.453482 -1.366506 0.263263
v 0.482232 -1.366506 0.240559
v 0.517768 -1.366506 0.240559
v 0.546518 -1.366506 0.263263
f 945 948 947
f 946 987 988
f 947 948 958
f 947 958 957
f 957 958 968
f 957 968 967
f 967 968 978
f 967 978 977
f 977 978 988
f 977 988 987
f 945 949 948
f 946 988 989
f 948 949 959
f 948 959 958
f 958 959 969
f 958 969 968
f 968 969 979
f 968 979 978
f 978 979 989
f 978 989 988
f 945 950 949
f 946 989 990
f 949 950 960
f 949 960 959
f 959 960 970
f 959 970 969
f 969 970 980
f 969 980 979
f 979 980 990
f 979 990 989
f 945 951 950
f 946 990 991
f 950 951 961
f 950 961 960
f 960 961 971
f 960 971 970
f 970 971 981
f 970 981 980
f 980 981 991
f 980 991 990
f 945 952 951
f 946 991 992
f 951 952 962
f 951 962 961
f 961 962 972
f 961 972 971
f 971 972 982
f 971 982 981
f 981 982 992
f 981 992 991
f 945 953 952
f 946 992 993
f 952 953 963
f 952 963 962
f 962 963 973
f 962 973 972
f 972 973 983
f 972 983 982
f 982 983 993
f 982 993 992
f 945 954 953
f 946 993 994
f 953 954 964
f 953 964 963
f 963 964 974
f 963 974 973
f 973 974 984
f 973 984 983
f 983 984 994
f 983 994 993
f 945 955 954
f 946 994 995
f 954 955 965
f 954 965 964
f 964 965 975
f 964 975 974
f 974 975 985
f 974 985 984
f 984 985 995
f 984 995 994
f 945 956 955
f 946 995 996
f 955 956 966
f 955 966 965
f 965 966 976
f 965 976 975
f 975 976 986
f 975 986 985
f 985 986 996
f 985 996 995
f 945 947 956
f 946 996 987
f 956 947 957
f 956 957 966
f 966 957 967
f 966 967 976
f 976 967 977
f 976 977 986
f 986 977 987
f 986 987 996
o RightBackPaw
usemtl color_33
s off
v 0.500000 -1.310000 0.130000
v 0.500000 -1.490000 0.130000
v 0.605000 -1.322058 0.130000
v 0.584947 -1.322058 0.225515
v 0.532447 -1.322058 0.284547
v 0.467553 -1.322058 0.284547
v 0.415053 -1.322058 0.225515
v 0.395000 -1.322058 0.130000
v 0.415053 -1.322058 0.034485
v 0.467553 -1.322058 -0.024547
v 0.532447 -1.322058 -0.024547
v 0.584947 -1.322058 0.034485
v 0.681865 -1.355000 0.130000
v 0.647132 -1.355000 0.295437
v 0.556199 -1.355000 0.397683
v 0.443801 -1.355000 0.397683
v 0.352868 -1.355000 0.295437
v 0.318135 -1.355000 0.130000
v 0.352868 -1.355000 -0.035437
v 0.443801 -1.355000 -0.137683
v 0.556199 -1.355000 -0.137683
v 0.647132 -1.355000 -0.035437
v 0.710000 -1.400000 0.130000
v 0.669894 -1.400000 0.321030
v 0.564894 -1.400000 0.439093
v 0.435106 -1.400000 0.439093
v 0.330106 -1.400000 0.321030
v 0.290000 -1.400000 0.130000
v 0.330106 -1.400000 -0.061030
v 0.435106 -1.400000 -0.179093
v 0.564894 -1.400000 -0.179093
v 0.669894 -1.400000 -0.061030
v 0.681865 -1.445000 0.130000
v 0.647132 -1.445000 0.295437
v 0.556199 -1.445000 0.397683
v 0.443801 -1.445000 0.397683
v 0.352868 -1.445000 0.295437
v 0.318135 -1.445000 0.130000
v 0.352868 -1.445000 -0.035437
v 0.443801 -1.445000 -0.137683
v 0.556199 -1.445000 -0.137683
v 0.647132 -1.445000 -0.035437
v 0.605000 -1.477942 0.130000
v 0.584947 -1.477942 0.225515
v 0.532447 -1.477942 0.284547
v 0.467553 -1.477942 0.284547
v 0.415053 -1.477942 0.225515
v 0.395000 -1.477942 0.130000
v 0.415053 -1.477942 0.034485
v 0.467553 -1.477942 -0.024547
v 0.532447 -1.477942 -0.024547
v 0.584947 -1.477942 0.034485
f 997 1000 999
f 998 1039 1040
f 999 1000 1010
f 999 1010 1009
f 1009 1010 1020
f 1009 1020 1019
f 1019 1020 1030
f 1019 1030 1029
f 1029 1030 1040
f 1029 1040 1039
f 997 1001 1000
f 998 1040 1041
f 1000 1001 1011
f 1000 1011 1010
f 1010 1011 1021
f 1010 1021 1020
f 1020 1021 1031
f 1020 1031 1030
f 1030 1031 1041
f 1030 1041 1040
f 997 1002 1001
f 998 1041 1042
f 1001 1002 1012
f 1001 1012 1011
f 1011 1012 1022
f 1011 1022 1021
f 1021 1022 1032
f 1021 1032 1031
f 1031 1032 1042
f 1031 1042 1041
f 997 1003 1002
f 998 1042 1043
f 1002 1003 1013
f 1002 1013 1012
f 1012 1013 1023
f 1012 1023 1022
f 1022 1023 1033
f 1022 1033 1032
f 1032 1033 1043
f 1032 1043 1042
f 997 1004 1003
f 998 1043 1044
f 1003 1004 1014
f 1003 1014 1013
f 1013 1014 1024
f 1013 1024 1023
f 1023 1024 1034
f 1023 1034 1033
f 1033 1034 1044
f 1033 1044 1043
f 997 1005 1004
f 998 1044 1045
f 1004 1005 1015
f 1004 1015 1014
f 1014 1015 1025
f 1014 1025 1024
f 1024 1025 1035
f 1024 1035 1034
f 1034 1035 1045
f 1034 1045 1044
f 997 1006 1005
f 998 1045 1046
f 1005 1006 1016
f 1005 1016 1015
f 1015 1016 1026
f 1015 1026 1025
f 1025 1026 1036
f 1025 1036 1035
f 1035 1036 1046
f 1035 1046 1045
f 997 1007 1006
f 998 1046 1047
f 1006 1007 1017
f 1006 1017 1016
f 1016 1017 1027
f 1016 1027 1026
f 1026 1027 1037
f 1026 1037 1036
f 1036 1037 1047
f 1036 1047 1046
f 997 1008 1007
f 998 1047 1048
f 1007 1008 1018
f 1007 1018 1017
f 1017 1018 1028
f 1017 1028 1027
f 1027 1028 1038
f 1027 1038 1037
f 1037 1038 1048
f 1037 1048 1047
f 997 999 1008
f 998 1048 1039
f 1008 999 1009
f 1008 1009 1018
f 1018 1009 1019
f 1018 1019 1028
f 1028 1019 1029
f 1028 1029 1038
f 1038 1029 1039
f 1038 1039 1048
o RightWing
usemtl color_34
s off
v 1.191077 0.262614 0.014997
v 1.208923 0.137386 -0.014997
v 1.331998 0.284938 -0.032105
v 1.367182 0.247176 0.146490
v 1.335556 0.212107 0.274092
v 1.249200 0.193125 0.301961
v 1.141100 0.197482 0.219452
v 1.052546 0.223512 0.058081
v 1.017363 0.261274 -0.120515
v 1.048989 0.296343 -0.248116
v 1.135344 0.315325 -0.275985
v 1.243444 0.310969 -0.193477
v 1.437551 0.284503 -0.070605
v 1.498491 0.219098 0.238731
v 1.443713 0.158356 0.459744
v 1.294141 0.125479 0.508014
v 1.106906 0.133024 0.365105
v 0.953526 0.178110 0.085602
v 0.892586 0.243516 -0.223734
v 0.947364 0.304258 -0.444747
v 1.096936 0.337135 -0.493018
v 1.284171 0.329589 -0.350108
v 1.479452 0.261426 -0.090186
v 1.549819 0.185902 0.267004
v 1.486567 0.115763 0.522208
v 1.313856 0.077800 0.577946
v 1.097656 0.086513 0.412928
v 0.920548 0.138574 0.090186
v 0.850181 0.214098 -0.267004
v 0.913433 0.284237 -0.522208
v 1.086144 0.322200 -0.577946
v 1.302344 0.313487 -0.412928
v 1.446474 0.221890 -0.085602
v 1.507414 0.156484 0.223734
v 1.452636 0.095742 0.444747
v 1.303064 0.062865 0.493018
v 1.115829 0.070411 0.350108
v 0.962449 0.115497 0.070605
v 0.901509 0.180902 -0.238731
v 0.956287 0.241644 -0.459744
v 1.105859 0.274521 -0.508014
v 1.293094 0.266976 -0.365105
v 1.347454 0.176488 -0.058081
v 1.382637 0.138726 0.120515
v 1.351011 0.103657 0.248116
v 1.264656 0.084675 0.275985
v 1.156556 0.089031 0.193477
v 1.068002 0.115062 0.032105
v 1.032818 0.152824 -0.146490
v 1.064444 0.187893 -0.274092
v 1.150800 0.206875 -0.301961
v 1.258900 0.202518 -0.219452
f 1049 1052 1051
f 1050 1091 1092
f 1051 1052 1062
f 1051 1062 1061
f 1061 1062 1072
f 1061 1072 1071
f 1071 1072 1082
f 1071 1082 1081
f 1081 1082 1092
f 1081 1092 1091
f 1049 1053 1052
f 1050 1092 1093
f 1052 1053 1063
f 1052 1063 1062
f 1062 1063 1073
f 1062 1073 1072
f 1072 1073 1083
f 1072 1083 1082
f 1082 1083 1093
f 1082 1093 1092
f 1049 1054 1053
f 1050 1093 1094
f 1053 1054 1064
f 1053 1064 1063
f 1063 1064 1074
f 1063 1074 1073
f 1073 1074 1084
f 1073 1084 1083
f 1083 1084 1094
f 1083 1094 1093
f 1049 1055 1054
f 1050 1094 1095
f 1054 1055 1065
f 1054 1065 1064
f 1064 1065 1075
f 1064 1075 1074
f 1074 1075 1085
f 1074 1085 1084
f 1084 1085 1095
f 1084 1095 1094
f 1049 1056 1055
f 1050 1095 1096
f 1055 1056 1066
f 1055 1066 1065
f 1065 1066 1076
f 1065 1076 1075
f 1075 1076 1086
f 1075 1086 1085
f 1085 1086 1096
f 1085 1096 1095
f 1049 1057 1056
f 1050 1096 1097
f 1056 1057 1067
f 1056 1067 1066
f 1066 1067 1077
f 1066 1077 1076
f 1076 1077 1087
f 1076 1087 1086
f 1086 1087 1097
f 1086 1097 1096
f 1049 1058 1057
f 1050 1097 1098
f 1057 1058 1068
f 1057 1068 1067
f 1067 1068 1078
f 1067 1078 1077
f 1077 1078 1088
f 1077 1088 1087
f 1087 1088 1098
f 1087 1098 1097
f 1049 1059 1058
f 1050 1098 1099
f 1058 1059 1069
f 1058 1069 1068
f 1068 1069 1079
f 1068 1079 1078
f 1078 1079 1089
f 1078 1089 1088
f 1088 1089 1099
f 1088 1099 1098
f 1049 1060 1059
f 1050 1099 1100
f 1059 1060 1070
f 1059 1070 1069
f 1069 1070 1080
f 1069 1080 1079
f 1079 1080 1090
f 1079 1090 1089
f 1089 1090 1100
f 1089 1100 1099
f 1049 1051 1060
f 1050 1100 1091
f 1060 1051 1061
f 1060 1061 1070
f 1070 1061 1071
f 1070 1071 1080
f 1080 1071 1081
f 1080 1081 1090
f 1090 1081 1091
f 1090 1091 1100
o RightWingVein
usemtl color_35
s off
v 1.034769 0.314690 -0.403297
v 1.076687 0.323904 -0.416825
v 1.070510 0.367252 -0.406443
v 1.028592 0.358038 -0.392915
v 1.329490 0.162748 0.406443
v 1.371408 0.171962 0.392915
v 1.365231 0.215310 0.403297
v 1.323313 0.206096 0.416825
f 1101 1104 1103
f 1101 1103 1102
f 1105 1106 1107
f 1105 1107 1108
f 1101 1105 1108
f 1101 1108 1104
f 1102 1103 1107
f 1102 1107 1106
f 1104 1108 1107
f 1104 1107 1103
f 1101 1102 1106
f 1101 1106 1105
o RightWingLeaf
usemtl color_36
s off
v 1.210567 0.308530 -0.428419
v 1.197742 0.134387 0.184701
v 1.769433 0.091470 0.668419
v 1.726372 0.287319 -0.054385
v 1.452017 0.272684 0.082510
v 1.472097 0.149022 0.047806
f 1109 1110 1113
f 1110 1109 1114
f 1110 1111 1113
f 1111 1110 1114
f 1111 1112 1113
f 1112 1111 1114
f 1112 1109 1113
f 1109 1112 1114
o RightWingLeafVein
usemtl color_37
s off
v 1.278048 0.313833 -0.260934
v 1.317696 0.325303 -0.278865
v 1.310745 0.368109 -0.266853
v 1.271098 0.356639 -0.248921
v 1.669255 0.161891 0.506853
v 1.708902 0.173361 0.488921
v 1.701952 0.216167 0.500934
v 1.662304 0.204697 0.518865
f 1115 1118 1117
f 1115 1117 1116
f 1119 1120 1121
f 1119 1121 1122
f 1115 1119 1122
f 1115 1122 1118
f 1116 1117 1121
f 1116 1121 1120
f 1118 1122 1121
f 1118 1121 1117
f 1115 1116 1120
f 1115 1120 1119
o RightWingLeaf_1
usemtl color_38
s off
v 1.435814 0.308530 -0.270277
v 1.500041 0.119556 0.335174
v 2.124186 0.091470 0.750277
v 1.991122 0.302150 0.042771
v 1.734932 0.271733 0.209104
v 1.756231 0.149974 0.168841
f 1123 1124 1127
f 1124 1123 1128
f 1124 1125 1127
f 1125 1124 1128
f 1125 1126 1127
f 1126 1125 1128
f 1126 1123 1127
f 1123 1126 1128
o RightWingLeafVein_1
usemtl color_39
s off
v 1.524341 0.313050 -0.113197
v 1.561172 0.326745 -0.135127
v 1.553799 0.368892 -0.121190
v 1.516968 0.355198 -0.099260
v 2.006201 0.161108 0.601190
v 2.043032 0.174802 0.579260
v 2.035659 0.216950 0.593197
v 1.998828 0.203255 0.615127
f 1129 1132 1131
f 1129 1131 1130
f 1133 1134 1135
f 1133 1135 1136
f 1129 1133 1136
f 1129 1136 1132
f 1130 1131 1135
f 1130 1135 1134
f 1132 1136 1135
f 1132 1135 1131
f 1129 1130 1134
f 1129 1134 1133
o RightWingLeaf_2
usemtl color_40
s off
v 1.666192 0.308530 -0.104527
v 1.805997 0.104976 0.483203
v 2.473808 0.091470 0.824527
v 2.253242 0.316730 0.143892
v 2.018952 0.270614 0.336782
v 2.040286 0.151092 0.290312
f 1137 1138 1141
f 1138 1137 1142
f 1138 1139 1141
f 1139 1138 1142
f 1139 1140 1141
f 1140 1139 1142
f 1140 1137 1141
f 1137 1140 1142
o RightWingLeafVein_2
usemtl color_41
s off
v 1.774255 0.312344 0.039512
v 1.807799 0.328225 0.014064
v 1.800414 0.369598 0.030150
v 1.766871 0.353717 0.055598
v 2.339586 0.160402 0.689850
v 2.373129 0.176283 0.664402
v 2.365745 0.217656 0.680488
v 2.332201 0.201775 0.705936
f 1143 1146 1145
f 1143 1145 1144
f 1147 1148 1149
f 1147 1149 1150
f 1143 1147 1150
f 1143 1150 1146
f 1144 1145 1149
f 1144 1149 1148
f 1146 1150 1149
f 1146 1149 1145
f 1143 1144 1148
f 1143 1148 1147
o RightWingLeaf_3
usemtl color_42
s off
v 1.089485 0.438530 -0.348385
v 0.999497 0.279427 0.262347
v 1.510515 0.221470 0.808385
v 1.558400 0.402279 0.081975
v 1.270025 0.403467 0.187158
v 1.287872 0.278239 0.157165
f 1151 1152 1155
f 1152 1151 1156
f 1152 1153 1155
f 1153 1152 1156
f 1153 1154 1155
f 1154 1153 1156
f 1154 1151 1155
f 1151 1154 1156
o RightWingLeafVein_3
usemtl color_43
s off
v 1.134769 0.444690 -0.173297
v 1.176687 0.453904 -0.186825
v 1.170510 0.497252 -0.176443
v 1.128592 0.488038 -0.162915
v 1.429490 0.292748 0.636443
v 1.471408 0.301962 0.622915
v 1.465231 0.345310 0.633297
v 1.423313 0.336096 0.646825
f 1157 1160 1159
f 1157 1159 1158
f 1161 1162 1163
f 1161 1163 1164
f 1157 1161 1164
f 1157 1164 1160
f 1158 1159 1163
f 1158 1163 1162
f 1160 1164 1163
f 1160 1163 1159
f 1157 1158 1162
f 1157 1162 1161
o RightWingLeaf_4
usemtl color_44
s off
v 1.310567 0.438530 -0.198419
v 1.297742 0.264387 0.414701
v 1.869433 0.221470 0.898419
v 1.826372 0.417319 0.175615
v 1.552017 0.402684 0.312510
v 1.572097 0.279022 0.277806
f 1165 1166 1169
f 1166 1165 1170
f 1166 1167 1169
f 1167 1166 1170
f 1167 1168 1169
f 1168 1167 1170
f 1168 1165 1169
f 1165 1168 1170
o RightWingLeafVein_4
usemtl color_45
s off
v 1.378048 0.443833 -0.030934
v 1.417696 0.455303 -0.048865
v 1.410745 0.498109 -0.036853
v 1.371098 0.486639 -0.018921
v 1.769255 0.291891 0.736853
v 1.808902 0.303361 0.718921
v 1.801952 0.346167 0.730934
v 1.762304 0.334697 0.748865
f 1171 1174 1173
f 1171 1173 1172
f 1175 1176 1177
f 1175 1177 1178
f 1171 1175 1178
f 1171 1178 1174
f 1172 1173 1177
f 1172 1177 1176
f 1174 1178 1177
f 1174 1177 1173
f 1171 1172 1176
f 1171 1176 1175
o RightWingLeaf_5
usemtl color_46
s off
v 1.535814 0.438530 -0.040277
v 1.600041 0.249556 0.565174
v 2.224186 0.221470 0.980277
v 2.091122 0.432150 0.272771
v 1.834932 0.401733 0.439104
v 1.856231 0.279974 0.398841
f 1179 1180 1183
f 1180 1179 1184
f 1180 1181 1183
f 1181 1180 1184
f 1181 1182 1183
f 1182 1181 1184
f 1182 1179 1183
f 1179 1182 1184
o RightWingLeafVein_5
usemtl color_47
s off
v 1.624341 0.443050 0.116803
v 1.661172 0.456745 0.094873
v 1.653799 0.498892 0.108810
v 1.616968 0.485198 0.130740
v 2.106201 0.291108 0.831190
v 2.143032 0.304802 0.809260
v 2.135659 0.346950 0.823197
v 2.098828 0.333255 0.845127
f 1185 1188 1187
f 1185 1187 1186
f 1189 1190 1191
f 1189 1191 1192
f 1185 1189 1192
f 1185 1192 1188
f 1186 1187 1191
f 1186 1191 1190
f 1188 1192 1191
f 1188 1191 1187
f 1185 1186 1190
f 1185 1190 1189
o RightWingLeaf_6
usemtl color_48
s off
v 1.766192 0.438530 0.125473
v 1.905997 0.234976 0.713203
v 2.573808 0.221470 1.054527
v 2.353242 0.446730 0.373892
v 2.118952 0.400614 0.566782
v 2.140286 0.281092 0.520312
f 1193 1194 1197
f 1194 1193 1198
f 1194 1195 1197
f 1195 1194 1198
f 1195 1196 1197
f 1196 1195 1198
f 1196 1193 1197
f 1193 1196 1198
o RightWingLeafVein_6
usemtl color_49
s off
v 1.874255 0.442344 0.269512
v 1.907799 0.458225 0.244064
v 1.900414 0.499598 0.260150
v 1.866871 0.483717 0.285598
v 2.439586 0.290402 0.919850
v 2.473129 0.306283 0.894402
v 2.465745 0.347656 0.910488
v 2.432201 0.331775 0.935936
f 1199 1202 1201
f 1199 1201 1200
f 1203 1204 1205
f 1203 1205 1206
f 1199 1203 1206
f 1199 1206 1202
f 1200 1201 1205
f 1200 1205 1204
f 1202 1206 1205
f 1202 1205 1201
f 1199 1200 1204
f 1199 1204 1203
o TailLeaf
usemtl color_50
s off
v -0.058489 0.091309 1.239303
v -0.434768 -0.098869 1.513841
v -0.441511 -0.331309 2.060697
v -0.026930 -0.098869 1.704019
v -0.242458 -0.039959 1.633827
v -0.219239 -0.157779 1.584034
f 1207 1208 1211
f 1208 1207 1212
f 1208 1209 1211
f 1209 1208 1212
f 1209 1210 1211
f 1210 1209 1212
f 1210 1207 1211
f 1207 1210 1212
o TailLeafVein
usemtl color_51
s off
v -0.132316 0.072524 1.344385
v -0.091532 0.072524 1.363403
v -0.099569 0.113308 1.380639
v -0.140353 0.113308 1.361621
v -0.400431 -0.223308 1.919361
v -0.359647 -0.223308 1.938379
v -0.367684 -0.182524 1.955615
v -0.408468 -0.182524 1.936597
f 1213 1216 1215
f 1213 1215 1214
f 1217 1218 1219
f 1217 1219 1220
f 1213 1217 1220
f 1213 1220 1216
f 1214 1215 1219
f 1214 1219 1218
f 1216 1220 1219
f 1216 1219 1215
f 1213 1214 1218
f 1213 1218 1217
o TailLeaf_1
usemtl color_52
s off
v 0.000000 0.091309 1.316846
v -0.225000 -0.098869 1.724685
v 0.000000 -0.331309 2.223154
v 0.225000 -0.098869 1.724685
v 0.000000 -0.039959 1.752155
v 0.000000 -0.157779 1.697214
f 1221 1222 1225
f 1222 1221 1226
f 1222 1223 1225
f 1223 1222 1226
f 1223 1224 1225
f 1224 1223 1226
f 1224 1221 1225
f 1221 1224 1226
o TailLeafVein_1
usemtl color_53
s off
v -0.022500 0.072524 1.443283
v 0.022500 0.072524 1.443283
v 0.022500 0.113308 1.462301
v -0.022500 0.113308 1.462301
v -0.022500 -0.223308 2.077699
v 0.022500 -0.223308 2.077699
v 0.022500 -0.182524 2.096717
v -0.022500 -0.182524 2.096717
f 1227 1230 1229
f 1227 1229 1228
f 1231 1232 1233
f 1231 1233 1234
f 1227 1231 1234
f 1227 1234 1230
f 1228 1229 1233
f 1228 1233 1232
f 1230 1234 1233
f 1230 1233 1229
f 1227 1228 1232
f 1227 1232 1231
o TailLeaf_2
usemtl color_54
s off
v 0.058489 0.091309 1.479303
v 0.026930 -0.098869 1.944019
v 0.441511 -0.331309 2.300697
v 0.434768 -0.098869 1.753841
v 0.242458 -0.039959 1.873827
v 0.219239 -0.157779 1.824034
f 1235 1236 1239
f 1236 1235 1240
f 1236 1237 1239
f 1237 1236 1240
f 1237 1238 1239
f 1238 1237 1240
f 1238 1235 1239
f 1235 1238 1240
o TailLeafVein_2
usemtl color_55
s off
v 0.091532 0.072524 1.603403
v 0.132316 0.072524 1.584385
v 0.140353 0.113308 1.601621
v 0.099569 0.113308 1.620639
v 0.359647 -0.223308 2.178379
v 0.400431 -0.223308 2.159361
v 0.408468 -0.182524 2.176597
v 0.367684 -0.182524 2.195615
f 1241 1244 1243
f 1241 1243 1242
f 1245 1246 1247
f 1245 1247 1248
f 1241 1245 1248
f 1241 1248 1244
f 1242 1243 1247
f 1242 1247 1246
f 1244 1248 1247
f 1244 1247 1243
f 1241 1242 1246
f 1241 1246 1245
o BudPetal
usemtl color_56
s off
v 0.000000 1.940000 -0.900000
v 0.000000 1.220000 -0.900000
v 0.085000 1.891769 -0.900000
v 0.068766 1.891769 -0.850038
v 0.026266 1.891769 -0.819160
v -0.026266 1.891769 -0.819160
v -0.068766 1.891769 -0.850038
v -0.085000 1.891769 -0.900000
v -0.068766 1.891769 -0.949962
v -0.026266 1.891769 -0.980840
v 0.026266 1.891769 -0.980840
v 0.068766 1.891769 -0.949962
v 0.147224 1.760000 -0.900000
v 0.119107 1.760000 -0.813464
v 0.045495 1.760000 -0.759981
v -0.045495 1.760000 -0.759981
v -0.119107 1.760000 -0.813464
v -0.147224 1.760000 -0.900000
v -0.119107 1.760000 -0.986536
v -0.045495 1.760000 -1.040019
v 0.045495 1.760000 -1.040019
v 0.119107 1.760000 -0.986536
v 0.170000 1.580000 -0.900000
v 0.137533 1.580000 -0.800077
v 0.052533 1.580000 -0.738320
v -0.052533 1.580000 -0.738320
v -0.137533 1.580000 -0.800077
v -0.170000 1.580000 -0.900000
v -0.137533 1.580000 -0.999923
v -0.052533 1.580000 -1.061680
v 0.052533 1.580000 -1.061680
v 0.137533 1.580000 -0.999923
v 0.147224 1.400000 -0.900000
v 0.119107 1.400000 -0.813464
v 0.045495 1.400000 -0.759981
v -0.045495 1.400000 -0.759981
v -0.119107 1.400000 -0.813464
v -0.147224 1.400000 -0.900000
v -0.119107 1.400000 -0.986536
v -0.045495 1.400000 -1.040019
v 0.045495 1.400000 -1.040019
v 0.119107 1.400000 -0.986536
v 0.085000 1.268231 -0.900000
v 0.068766 1.268231 -0.850038
v 0.026266 1.268231 -0.819160
v -0.026266 1.268231 -0.819160
v -0.068766 1.268231 -0.850038
v -0.085000 1.268231 -0.900000
v -0.068766 1.268231 -0.949962
v -0.026266 1.268231 -0.980840
v 0.026266 1.268231 -0.980840
v 0.068766 1.268231 -0.949962
f 1249 1252 1251
f 1250 1291 1292
f 1251 1252 1262
f 1251 1262 1261
f 1261 1262 1272
f 1261 1272 1271
f 1271 1272 1282
f 1271 1282 1281
f 1281 1282 1292
f 1281 1292 1291
f 1249 1253 1252
f 1250 1292 1293
f 1252 1253 1263
f 1252 1263 1262
f 1262 1263 1273
f 1262 1273 1272
f 1272 1273 1283
f 1272 1283 1282
f 1282 1283 1293
f 1282 1293 1292
f 1249 1254 1253
f 1250 1293 1294
f 1253 1254 1264
f 1253 1264 1263
f 1263 1264 1274
f 1263 1274 1273
f 1273 1274 1284
f 1273 1284 1283
f 1283 1284 1294
f 1283 1294 1293
f 1249 1255 1254
f 1250 1294 1295
f 1254 1255 1265
f 1254 1265 1264
f 1264 1265 1275
f 1264 1275 1274
f 1274 1275 1285
f 1274 1285 1284
f 1284 1285 1295
f 1284 1295 1294
f 1249 1256 1255
f 1250 1295 1296
f 1255 1256 1266
f 1255 1266 1265
f 1265 1266 1276
f 1265 1276 1275
f 1275 1276 1286
f 1275 1286 1285
f 1285 1286 1296
f 1285 1296 1295
f 1249 1257 1256
f 1250 1296 1297
f 1256 1257 1267
f 1256 1267 1266
f 1266 1267 1277
f 1266 1277 1276
f 1276 1277 1287
f 1276 1287 1286
f 1286 1287 1297
f 1286 1297 1296
f 1249 1258 1257
f 1250 1297 1298
f 1257 1258 1268
f 1257 1268 1267
f 1267 1268 1278
f 1267 1278 1277
f 1277 1278 1288
f 1277 1288 1287
f 1287 1288 1298
f 1287 1298 1297
f 1249 1259 1258
f 1250 1298 1299
f 1258 1259 1269
f 1258 1269 1268
f 1268 1269 1279
f 1268 1279 1278
f 1278 1279 1289
f 1278 1289 1288
f 1288 1289 1299
f 1288 1299 1298
f 1249 1260 1259
f 1250 1299 1300
f 1259 1260 1270
f 1259 1270 1269
f 1269 1270 1280
f 1269 1280 1279
f 1279 1280 1290
f 1279 1290 1289
f 1289 1290 1300
f 1289 1300 1299
f 1249 1251 1260
f 1250 1300 1291
f 1260 1251 1261
f 1260 1261 1270
f 1270 1261 1271
f 1270 1271 1280
f 1280 1271 1281
f 1280 1281 1290
f 1290 1281 1291
f 1290 1291 1300
o BudPetal_1
usemtl color_57
s off
v 0.315201 1.924050 -1.052016
v 0.103264 1.235950 -1.052016
v 0.382238 1.852936 -1.052016
v 0.366724 1.857714 -1.002055
v 0.326107 1.870225 -0.971176
v 0.275901 1.885688 -0.971176
v 0.235284 1.898198 -1.002055
v 0.219770 1.902977 -1.052016
v 0.235284 1.898198 -1.101978
v 0.275901 1.885688 -1.132856
v 0.326107 1.870225 -1.132856
v 0.366724 1.857714 -1.101978
v 0.402918 1.708689 -1.052016
v 0.376047 1.716965 -0.965480
v 0.305696 1.738633 -0.911998
v 0.218738 1.765417 -0.911998
v 0.148387 1.787085 -0.965480
v 0.121515 1.795362 -1.052016
v 0.148387 1.787085 -1.138553
v 0.218738 1.765417 -1.192035
v 0.305696 1.738633 -1.192035
v 0.376047 1.716965 -1.138553
v 0.371701 1.529959 -1.052016
v 0.340672 1.539516 -0.952093
v 0.259438 1.564537 -0.890337
v 0.159027 1.595463 -0.890337
v 0.077793 1.620484 -0.952093
v 0.046764 1.630041 -1.052016
v 0.077793 1.620484 -1.151940
v 0.159027 1.595463 -1.213696
v 0.259438 1.564537 -1.213696
v 0.340672 1.539516 -1.151940
v 0.296950 1.364638 -1.052016
v 0.270078 1.372915 -0.965480
v 0.199727 1.394583 -0.911998
v 0.112769 1.421367 -0.911998
v 0.042418 1.443035 -0.965480
v 0.015546 1.451311 -1.052016
v 0.042418 1.443035 -1.138553
v 0.112769 1.421367 -1.192035
v 0.199727 1.394583 -1.192035
v 0.270078 1.372915 -1.138553
v 0.198695 1.257023 -1.052016
v 0.183181 1.261802 -1.002055
v 0.142564 1.274312 -0.971176
v 0.092358 1.289775 -0.971176
v 0.051741 1.302286 -1.002055
v 0.036227 1.307064 -1.052016
v 0.051741 1.302286 -1.101978
v 0.092358 1.289775 -1.132856
v 0.142564 1.274312 -1.132856
v 0.183181 1.261802 -1.101978
f 1301 1304 1303
f 1302 1343 1344
f 1303 1304 1314
f 1303 1314 1313
f 1313 1314 1324
f 1313 1324 1323
f 1323 1324 1334
f 1323 1334 1333
f 1333 1334 1344
f 1333 1344 1343
f 1301 1305 1304
f 1302 1344 1345
f 1304 1305 1315
f 1304 1315 1314
f 1314 1315 1325
f 1314 1325 1324
f 1324 1325 1335
f 1324 1335 1334
f 1334 1335 1345
f 1334 1345 1344
f 1301 1306 1305
f 1302 1345 1346
f 1305 1306 1316
f 1305 1316 1315
f 1315 1316 1326
f 1315 1326 1325
f 1325 1326 1336
f 1325 1336 1335
f 1335 1336 1346
f 1335 1346 1345
f 1301 1307 1306
f 1302 1346 1347
f 1306 1307 1317
f 1306 1317 1316
f 1316 1317 1327
f 1316 1327 1326
f 1326 1327 1337
f 1326 1337 1336
f 1336 1337 1347
f 1336 1347 1346
f 1301 1308 1307
f 1302 1347 1348
f 1307 1308 1318
f 1307 1318 1317
f 1317 1318 1328
f 1317 1328 1327
f 1327 1328 1338
f 1327 1338 1337
f 1337 1338 1348
f 1337 1348 1347
f 1301 1309 1308
f 1302 1348 1349
f 1308 1309 1319
f 1308 1319 1318
f 1318 1319 1329
f 1318 1329 1328
f 1328 1329 1339
f 1328 1339 1338
f 1338 1339 1349
f 1338 1349 1348
f 1301 1310 1309
f 1302 1349 1350
f 1309 1310 1320
f 1309 1320 1319
f 1319 1320 1330
f 1319 1330 1329
f 1329 1330 1340
f 1329 1340 1339
f 1339 1340 1350
f 1339 1350 1349
f 1301 1311 1310
f 1302 1350 1351
f 1310 1311 1321
f 1310 1321 1320
f 1320 1321 1331
f 1320 1331 1330
f 1330 1331 1341
f 1330 1341 1340
f 1340 1341 1351
f 1340 1351 1350
f 1301 1312 1311
f 1302 1351 1352
f 1311 1312 1322
f 1311 1322 1321
f 1321 1322 1332
f 1321 1332 1331
f 1331 1332 1342
f 1331 1342 1341
f 1341 1342 1352
f 1341 1352 1351
f 1301 1303 1312
f 1302 1352 1343
f 1312 1303 1313
f 1312 1313 1322
f 1322 1313 1323
f 1322 1323 1332
f 1332 1323 1333
f 1332 1333 1342
f 1342 1333 1343
f 1342 1343 1352
o BudPetal_2
usemtl color_58
s off
v 0.195413 1.933880 -1.297984
v 0.063213 1.226120 -1.297984
v 0.270112 1.870862 -1.297984
v 0.254154 1.873843 -1.248022
v 0.212377 1.881646 -1.217144
v 0.160737 1.891292 -1.217144
v 0.118960 1.899095 -1.248022
v 0.103002 1.902076 -1.297984
v 0.118960 1.899095 -1.347945
v 0.160737 1.891292 -1.378824
v 0.212377 1.881646 -1.378824
v 0.254154 1.873843 -1.347945
v 0.307084 1.729908 -1.297984
v 0.279445 1.735071 -1.211447
v 0.207084 1.748587 -1.157965
v 0.117641 1.765293 -1.157965
v 0.045281 1.778809 -1.211447
v 0.017641 1.783972 -1.297984
v 0.045281 1.778809 -1.384520
v 0.117641 1.765293 -1.438002
v 0.207084 1.748587 -1.438002
v 0.279445 1.735071 -1.384520
v 0.296423 1.548786 -1.297984
v 0.264507 1.554748 -1.198060
v 0.180953 1.570354 -1.136304
v 0.077673 1.589646 -1.136304
v -0.005882 1.605252 -1.198060
v -0.037797 1.611214 -1.297984
v -0.005882 1.605252 -1.397907
v 0.077673 1.589646 -1.459663
v 0.180953 1.570354 -1.459663
v 0.264507 1.554748 -1.397907
v 0.240984 1.376028 -1.297984
v 0.213345 1.381191 -1.211447
v 0.140984 1.394707 -1.157965
v 0.051541 1.411413 -1.157965
v -0.020819 1.424929 -1.211447
v -0.048459 1.430092 -1.297984
v -0.020819 1.424929 -1.384520
v 0.051541 1.411413 -1.438002
v 0.140984 1.394707 -1.438002
v 0.213345 1.381191 -1.384520
v 0.155624 1.257924 -1.297984
v 0.139666 1.260905 -1.248022
v 0.097889 1.268708 -1.217144
v 0.046249 1.278354 -1.217144
v 0.004471 1.286157 -1.248022
v -0.011486 1.289138 -1.297984
v 0.004471 1.286157 -1.347945
v 0.046249 1.278354 -1.378824
v 0.097889 1.268708 -1.378824
v 0.139666 1.260905 -1.347945
f 1353 1356 1355
f 1354 1395 1396
f 1355 1356 1366
f 1355 1366 1365
f 1365 1366 1376
f 1365 1376 1375
f 1375 1376 1386
f 1375 1386 1385
f 1385 1386 1396
f 1385 1396 1395
f 1353 1357 1356
f 1354 1396 1397
f 1356 1357 1367
f 1356 1367 1366
f 1366 1367 1377
f 1366 1377 1376
f 1376 1377 1387
f 1376 1387 1386
f 1386 1387 1397
f 1386 1397 1396
f 1353 1358 1357
f 1354 1397 1398
f 1357 1358 1368
f 1357 1368 1367
f 1367 1368 1378
f 1367 1378 1377
f 1377 1378 1388
f 1377 1388 1387
f 1387 1388 1398
f 1387 1398 1397
f 1353 1359 1358
f 1354 1398 1399
f 1358 1359 1369
f 1358 1369 1368
f 1368 1369 1379
f 1368 1379 1378
f 1378 1379 1389
f 1378 1389 1388
f 1388 1389 1399
f 1388 1399 1398
f 1353 1360 1359
f 1354 1399 1400
f 1359 1360 1370
f 1359 1370 1369
f 1369 1370 1380
f 1369 1380 1379
f 1379 1380 1390
f 1379 1390 1389
f 1389 1390 1400
f 1389 1400 1399
f 1353 1361 1360
f 1354 1400 1401
f 1360 1361 1371
f 1360 1371 1370
f 1370 1371 1381
f 1370 1381 1380
f 1380 1381 1391
f 1380 1391 1390
f 1390 1391 1401
f 1390 1401 1400
f 1353 1362 1361
f 1354 1401 1402
f 1361 1362 1372
f 1361 1372 1371
f 1371 1372 1382
f 1371 1382 1381
f 1381 1382 1392
f 1381 1392 1391
f 1391 1392 1402
f 1391 1402 1401
f 1353 1363 1362
f 1354 1402 1403
f 1362 1363 1373
f 1362 1373 1372
f 1372 1373 1383
f 1372 1383 1382
f 1382 1383 1393
f 1382 1393 1392
f 1392 1393 1403
f 1392 1403 1402
f 1353 1364 1363
f 1354 1403 1404
f 1363 1364 1374
f 1363 1374 1373
f 1373 1374 1384
f 1373 1384 1383
f 1383 1384 1394
f 1383 1394 1393
f 1393 1394 1404
f 1393 1404 1403
f 1353 1355 1364
f 1354 1404 1395
f 1364 1355 1365
f 1364 1365 1374
f 1374 1365 1375
f 1374 1375 1384
f 1384 1375 1385
f 1384 1385 1394
f 1394 1385 1395
f 1394 1395 1404
o BudPetal_3
usemtl color_59
s off
v -0.195413 1.933880 -1.297984
v -0.063213 1.226120 -1.297984
v -0.103002 1.902076 -1.297984
v -0.118960 1.899095 -1.248022
v -0.160737 1.891292 -1.217144
v -0.212377 1.881646 -1.217144
v -0.254154 1.873843 -1.248022
v -0.270112 1.870862 -1.297984
v -0.254154 1.873843 -1.347945
v -0.212377 1.881646 -1.378824
v -0.160737 1.891292 -1.378824
v -0.118960 1.899095 -1.347945
v -0.017641 1.783972 -1.297984
v -0.045281 1.778809 -1.211447
v -0.117641 1.765293 -1.157965
v -0.207084 1.748587 -1.157965
v -0.279445 1.735071 -1.211447
v -0.307084 1.729908 -1.297984
v -0.279445 1.735071 -1.384520
v -0.207084 1.748587 -1.438002
v -0.117641 1.765293 -1.438002
v -0.045281 1.778809 -1.384520
v 0.037797 1.611214 -1.297984
v 0.005882 1.605252 -1.198060
v -0.077673 1.589646 -1.136304
v -0.180953 1.570354 -1.136304
v -0.264507 1.554748 -1.198060
v -0.296423 1.548786 -1.297984
v -0.264507 1.554748 -1.397907
v -0.180953 1.570354 -1.459663
v -0.077673 1.589646 -1.459663
v 0.005882 1.605252 -1.397907
v 0.048459 1.430092 -1.297984
v 0.020819 1.424929 -1.211447
v -0.051541 1.411413 -1.157965
v -0.140984 1.394707 -1.157965
v -0.213345 1.381191 -1.211447
v -0.240984 1.376028 -1.297984
v -0.213345 1.381191 -1.384520
v -0.140984 1.394707 -1.438002
v -0.051541 1.411413 -1.438002
v 0.020819 1.424929 -1.384520
v 0.011486 1.289138 -1.297984
v -0.004471 1.286157 -1.248022
v -0.046249 1.278354 -1.217144
v -0.097889 1.268708 -1.217144
v -0.139666 1.260905 -1.248022
v -0.155624 1.257924 -1.297984
v -0.139666 1.260905 -1.347945
v -0.097889 1.268708 -1.378824
v -0.046249 1.278354 -1.378824
v -0.004471 1.286157 -1.347945
f 1405 1408 1407
f 1406 1447 1448
f 1407 1408 1418
f 1407 1418 1417
f 1417 1418 1428
f 1417 1428 1427
f 1427 1428 1438
f 1427 1438 1437
f 1437 1438 1448
f 1437 1448 1447
f 1405 1409 1408
f 1406 1448 1449
f 1408 1409 1419
f 1408 1419 1418
f 1418 1419 1429
f 1418 1429 1428
f 1428 1429 1439
f 1428 1439 1438
f 1438 1439 1449
f 1438 1449 1448
f 1405 1410 1409
f 1406 1449 1450
f 1409 1410 1420
f 1409 1420 1419
f 1419 1420 1430
f 1419 1430 1429
f 1429 1430 1440
f 1429 1440 1439
f 1439 1440 1450
f 1439 1450 1449
f 1405 1411 1410
f 1406 1450 1451
f 1410 1411 1421
f 1410 1421 1420
f 1420 1421 1431
f 1420 1431 1430
f 1430 1431 1441
f 1430 1441 1440
f 1440 1441 1451
f 1440 1451 1450
f 1405 1412 1411
f 1406 1451 1452
f 1411 1412 1422
f 1411 1422 1421
f 1421 1422 1432
f 1421 1432 1431
f 1431 1432 1442
f 1431 1442 1441
f 1441 1442 1452
f 1441 1452 1451
f 1405 1413 1412
f 1406 1452 1453
f 1412 1413 1423
f 1412 1423 1422
f 1422 1423 1433
f 1422 1433 1432
f 1432 1433 1443
f 1432 1443 1442
f 1442 1443 1453
f 1442 1453 1452
f 1405 1414 1413
f 1406 1453 1454
f 1413 1414 1424
f 1413 1424 1423
f 1423 1424 1434
f 1423 1434 1433
f 1433 1434 1444
f 1433 1444 1443
f 1443 1444 1454
f 1443 1454 1453
f 1405 1415 1414
f 1406 1454 1455
f 1414 1415 1425
f 1414 1425 1424
f 1424 1425 1435
f 1424 1435 1434
f 1434 1435 1445
f 1434 1445 1444
f 1444 1445 1455
f 1444 1455 1454
f 1405 1416 1415
f 1406 1455 1456
f 1415 1416 1426
f 1415 1426 1425
f 1425 1426 1436
f 1425 1436 1435
f 1435 1436 1446
f 1435 1446 1445
f 1445 1446 1456
f 1445 1456 1455
f 1405 1407 1416
f 1406 1456 1447
f 1416 1407 1417
f 1416 1417 1426
f 1426 1417 1427
f 1426 1427 1436
f 1436 1427 1437
f 1436 1437 1446
f 1446 1437 1447
f 1446 1447 1456
o BudPetal_4
usemtl color_60
s off
v -0.315201 1.924050 -1.052016
v -0.103264 1.235950 -1.052016
v -0.219770 1.902977 -1.052016
v -0.235284 1.898198 -1.002055
v -0.275901 1.885688 -0.971176
v -0.326107 1.870225 -0.971176
v -0.366724 1.857714 -1.002055
v -0.382238 1.852936 -1.052016
v -0.366724 1.857714 -1.101978
v -0.326107 1.870225 -1.132856
v -0.275901 1.885688 -1.132856
v -0.235284 1.898198 -1.101978
v -0.121515 1.795362 -1.052016
v -0.148387 1.787085 -0.965480
v -0.218738 1.765417 -0.911998
v -0.305696 1.738633 -0.911998
v -0.376047 1.716965 -0.965480
v -0.402918 1.708689 -1.052016
v -0.376047 1.716965 -1.138553
v -0.305696 1.738633 -1.192035
v -0.218738 1.765417 -1.192035
v -0.148387 1.787085 -1.138553
v -0.046764 1.630041 -1.052016
v -0.077793 1.620484 -0.952093
v -0.159027 1.595463 -0.890337
v -0.259438 1.564537 -0.890337
v -0.340672 1.539516 -0.952093
v -0.371701 1.529959 -1.052016
v -0.340672 1.539516 -1.151940
v -0.259438 1.564537 -1.213696
v -0.159027 1.595463 -1.213696
v -0.077793 1.620484 -1.151940
v -0.015546 1.451311 -1.052016
v -0.042418 1.443035 -0.965480
v -0.112769 1.421367 -0.911998
v -0.199727 1.394583 -0.911998
v -0.270078 1.372915 -0.965480
v -0.296950 1.364638 -1.052016
v -0.270078 1.372915 -1.138553
v -0.199727 1.394583 -1.192035
v -0.112769 1.421367 -1.192035
v -0.042418 1.443035 -1.138553
v -0.036227 1.307064 -1.052016
v -0.051741 1.302286 -1.002055
v -0.092358 1.289775 -0.971176
v -0.142564 1.274312 -0.971176
v -0.183181 1.261802 -1.002055
v -0.198695 1.257023 -1.052016
v -0.183181 1.261802 -1.101978
v -0.142564 1.274312 -1.132856
v -0.092358 1.289775 -1.132856
v -0.051741 1.302286 -1.101978
f 1457 1460 1459
f 1458 1499 1500
f 1459 1460 1470
f 1459 1470 1469
f 1469 1470 1480
f 1469 1480 1479
f 1479 1480 1490
f 1479 1490 1489
f 1489 1490 1500
f 1489 1500 1499
f 1457 1461 1460
f 1458 1500 1501
f 1460 1461 1471
f 1460 1471 1470
f 1470 1471 1481
f 1470 1481 1480
f 1480 1481 1491
f 1480 1491 1490
f 1490 1491 1501
f 1490 1501 1500
f 1457 1462 1461
f 1458 1501 1502
f 1461 1462 1472
f 1461 1472 1471
f 1471 1472 1482
f 1471 1482 1481
f 1481 1482 1492
f 1481 1492 1491
f 1491 1492 1502
f 1491 1502 1501
f 1457 1463 1462
f 1458 1502 1503
f 1462 1463 1473
f 1462 1473 1472
f 1472 1473 1483
f 1472 1483 1482
f 1482 1483 1493
f 1482 1493 1492
f 1492 1493 1503
f 1492 1503 1502
f 1457 1464 1463
f 1458 1503 1504
f 1463 1464 1474
f 1463 1474 1473
f 1473 1474 1484
f 1473 1484 1483
f 1483 1484 1494
f 1483 1494 1493
f 1493 1494 1504
f 1493 1504 1503
f 1457 1465 1464
f 1458 1504 1505
f 1464 1465 1475
f 1464 1475 1474
f 1474 1475 1485
f 1474 1485 1484
f 1484 1485 1495
f 1484 1495 1494
f 1494 1495 1505
f 1494 1505 1504
f 1457 1466 1465
f 1458 1505 1506
f 1465 1466 1476
f 1465 1476 1475
f 1475 1476 1486
f 1475 1486 1485
f 1485 1486 1496
f 1485 1496 1495
f 1495 1496 1506
f 1495 1506 1505
f 1457 1467 1466
f 1458 1506 1507
f 1466 1467 1477
f 1466 1477 1476
f 1476 1477 1487
f 1476 1487 1486
f 1486 1487 1497
f 1486 1497 1496
f 1496 1497 1507
f 1496 1507 1506
f 1457 1468 1467
f 1458 1507 1508
f 1467 1468 1478
f 1467 1478 1477
f 1477 1478 1488
f 1477 1488 1487
f 1487 1488 1498
f 1487 1498 1497
f 1497 1498 1508
f 1497 1508 1507
f 1457 1459 1468
f 1458 1508 1499
f 1468 1459 1469
f 1468 1469 1478
f 1478 1469 1479
f 1478 1479 1488
f 1488 1479 1489
f 1488 1489 1498
f 1498 1489 1499
f 1498 1499 1508
o BudLeaf
usemtl color_61
s off
v -0.250000 1.436287 -1.419495
v -0.408604 1.262131 -1.157245
v -0.250000 1.203713 -0.780505
v -0.091396 1.401127 -1.106654
v -0.277470 1.386986 -1.111801
v -0.222530 1.276271 -1.152098
f 1509 1510 1513
f 1510 1509 1514
f 1510 1511 1513
f 1511 1510 1514
f 1511 1512 1513
f 1512 1511 1514
f 1512 1509 1513
f 1509 1512 1514
o BudLeafVein
usemtl color_62
s off
v -0.260883 1.438303 -1.333874
v -0.220099 1.456174 -1.327369
v -0.239117 1.494498 -1.313420
v -0.279901 1.476627 -1.319925
v -0.260883 1.275502 -0.886580
v -0.220099 1.293373 -0.880075
v -0.239117 1.331697 -0.866126
v -0.279901 1.313826 -0.872631
f 1515 1518 1517
f 1515 1517 1516
f 1519 1520 1521
f 1519 1521 1522
f 1515 1519 1522
f 1515 1522 1518
f 1516 1517 1521
f 1516 1521 1520
f 1518 1522 1521
f 1518 1521 1517
f 1515 1516 1520
f 1515 1520 1519
o BudLeaf_1
usemtl color_63
s off
v -0.069495 1.436287 -1.100000
v 0.192755 1.262131 -0.941396
v 0.569495 1.203713 -1.100000
v 0.243346 1.401127 -1.258604
v 0.238199 1.386986 -1.072530
v 0.197902 1.276271 -1.127470
f 1523 1524 1527
f 1524 1523 1528
f 1524 1525 1527
f 1525 1524 1528
f 1525 1526 1527
f 1526 1525 1528
f 1526 1523 1527
f 1523 1526 1528
o BudLeafVein_1
usemtl color_64
s off
v 0.016126 1.438303 -1.089117
v 0.022631 1.456174 -1.129901
v 0.036580 1.494498 -1.110883
v 0.030075 1.476627 -1.070099
v 0.463420 1.275502 -1.089117
v 0.469925 1.293373 -1.129901
v 0.483874 1.331697 -1.110883
v 0.477369 1.313826 -1.070099
f 1529 1532 1531
f 1529 1531 1530
f 1533 1534 1535
f 1533 1535 1536
f 1529 1533 1536
f 1529 1536 1532
f 1530 1531 1535
f 1530 1535 1534
f 1532 1536 1535
f 1532 1535 1531
f 1529 1530 1534
f 1529 1534 1533
o BudLeaf_2
usemtl color_65
s off
v -0.250000 1.436287 -0.780505
v -0.091396 1.262131 -1.042755
v -0.250000 1.203713 -1.419495
v -0.408604 1.401127 -1.093346
v -0.222530 1.386986 -1.088199
v -0.277470 1.276271 -1.047902
f 1537 1538 1541
f 1538 1537 1542
f 1538 1539 1541
f 1539 1538 1542
f 1539 1540 1541
f 1540 1539 1542
f 1540 1537 1541
f 1537 1540 1542
o BudLeafVein_2
usemtl color_66
s off
v -0.239117 1.438303 -0.866126
v -0.279901 1.456174 -0.872631
v -0.260883 1.494498 -0.886580
v -0.220099 1.476627 -0.880075
v -0.239117 1.275502 -1.313420
v -0.279901 1.293373 -1.319925
v -0.260883 1.331697 -1.333874
v -0.220099 1.313826 -1.327369
f 1543 1546 1545
f 1543 1545 1544
f 1547 1548 1549
f 1547 1549 1550
f 1543 1547 1550
f 1543 1550 1546
f 1544 1545 1549
f 1544 1549 1548
f 1546 1550 1549
f 1546 1549 1545
f 1543 1544 1548
f 1543 1548 1547
o BudLeaf_3
usemtl color_67
s off
v 0.569495 1.436287 -1.100000
v 0.307245 1.262131 -1.258604
v -0.069495 1.203713 -1.100000
v 0.256654 1.401127 -0.941396
v 0.261801 1.386986 -1.127470
v 0.302098 1.276271 -1.072530
f 1551 1552 1555
f 1552 1551 1556
f 1552 1553 1555
f 1553 1552 1556
f 1553 1554 1555
f 1554 1553 1556
f 1554 1551 1555
f 1551 1554 1556
o BudLeafVein_3
usemtl color_68
s off
v 0.483874 1.438303 -1.110883
v 0.477369 1.456174 -1.070099
v 0.463420 1.494498 -1.089117
v 0.469925 1.476627 -1.129901
v 0.036580 1.275502 -1.110883
v 0.030075 1.293373 -1.070099
v 0.016126 1.331697 -1.089117
v 0.022631 1.313826 -1.129901
f 1557 1560 1559
f 1557 1559 1558
f 1561 1562 1563
f 1561 1563 1564
f 1557 1561 1564
f 1557 1564 1560
f 1558 1559 1563
f 1558 1563 1562
f 1560 1564 1563
f 1560 1563 1559
f 1557 1558 1562
f 1557 1562 1561
