{
  "asset": {
    "generator": "Khronos glTF Blender I/O v4.4.55",
    "version": "2.0"
  },
  "scene": 0,
  "scenes": [
    {
      "nodes": [
        0,
        1
      ]
    }
  ],
  "nodes": [
    {
      "name": "MossratS1",
      "mesh": 0,
      "skin": 0
    },
    {
      "name": "Root",
      "translation": [
        0.0,
        0.0,
        0.0
      ],
      "children": [
        2
      ]
    },
    {
      "name": "Pelvis",
      "translation": [
        0.04,
        0.27,
        -0.28
      ],
      "children": [
        3,
        21,
        27,
        30
      ]
    },
    {
      "name": "Spine",
      "translation": [
        -0.02,
        0.04999999999999999,
        0.12000000000000002
      ],
      "children": [
        4
      ]
    },
    {
      "name": "Chest",
      "translation": [
        -0.035,
        0.020000000000000018,
        0.16
      ],
      "children": [
        5,
        18,
        24
      ]
    },
    {
      "name": "Neck",
      "translation": [
        -0.025,
        0.02999999999999997,
        0.12
      ],
      "children": [
        6
      ]
    },
    {
      "name": "Head",
      "translation": [
        -0.015,
        0.12,
        0.13
      ],
      "children": [
        7,
        8,
        9,
        10,
        12,
        14,
        16,
        17
      ]
    },
    {
      "name": "Jaw",
      "translation": [
        -0.0049999999999999975,
        -0.19,
        0.15000000000000002
      ]
    },
    {
      "name": "EyeLeft",
      "translation": [
        0.128,
        -0.09199999999999997,
        0.16199999999999998
      ]
    },
    {
      "name": "EyeRight",
      "translation": [
        -0.135,
        -0.07400000000000001,
        0.2
      ]
    },
    {
      "name": "EarLeft",
      "translation": [
        0.265,
        0.050000000000000044,
        -0.12
      ],
      "children": [
        11
      ]
    },
    {
      "name": "EarTipLeft",
      "translation": [
        0.0,
        0.11499999999999999,
        0.0
      ]
    },
    {
      "name": "EarRight",
      "translation": [
        -0.255,
        0.040000000000000036,
        -0.13
      ],
      "children": [
        13
      ]
    },
    {
      "name": "EarTipRight",
      "translation": [
        0.0,
        0.125,
        0.0
      ]
    },
    {
      "name": "Sprout",
      "translation": [
        0.0049999999999999975,
        0.21999999999999997,
        -0.04000000000000001
      ],
      "children": [
        15
      ]
    },
    {
      "name": "SproutTip",
      "translation": [
        -0.009999999999999995,
        0.09500000000000008,
        0.03
      ]
    },
    {
      "name": "WhiskerLeft",
      "translation": [
        0.235,
        -0.2,
        0.15000000000000002
      ]
    },
    {
      "name": "WhiskerRight",
      "translation": [
        -0.22500000000000003,
        -0.19,
        0.15000000000000002
      ]
    },
    {
      "name": "LeftFrontUpper",
      "translation": [
        0.25,
        -0.11500000000000002,
        0.02
      ],
      "children": [
        19
      ]
    },
    {
      "name": "LeftFrontLower",
      "translation": [
        0.0,
        -0.11,
        0.006000000000000002
      ],
      "children": [
        20
      ]
    },
    {
      "name": "LeftFrontPaw",
      "translation": [
        0.0,
        -0.08,
        0.015999999999999993
      ]
    },
    {
      "name": "LeftRearUpper",
      "translation": [
        0.19499999999999998,
        -0.015000000000000013,
        -0.02999999999999997
      ],
      "children": [
        22
      ]
    },
    {
      "name": "LeftRearLower",
      "translation": [
        0.0,
        -0.14,
        0.006000000000000005
      ],
      "children": [
        23
      ]
    },
    {
      "name": "LeftRearPaw",
      "translation": [
        0.0,
        -0.08,
        0.016000000000000014
      ]
    },
    {
      "name": "RightFrontUpper",
      "translation": [
        -0.22999999999999998,
        -0.11500000000000002,
        0.02
      ],
      "children": [
        25
      ]
    },
    {
      "name": "RightFrontLower",
      "translation": [
        0.0,
        -0.11,
        0.006000000000000002
      ],
      "children": [
        26
      ]
    },
    {
      "name": "RightFrontPaw",
      "translation": [
        0.0,
        -0.08,
        0.015999999999999993
      ]
    },
    {
      "name": "RightRearUpper",
      "translation": [
        -0.285,
        -0.015000000000000013,
        -0.02999999999999997
      ],
      "children": [
        28
      ]
    },
    {
      "name": "RightRearLower",
      "translation": [
        0.0,
        -0.14,
        0.006000000000000005
      ],
      "children": [
        29
      ]
    },
    {
      "name": "RightRearPaw",
      "translation": [
        0.0,
        -0.08,
        0.016000000000000014
      ]
    },
    {
      "name": "Tail1",
      "translation": [
        0.10999999999999999,
        -0.07500000000000001,
        -0.08999999999999997
      ],
      "children": [
        31
      ]
    },
    {
      "name": "Tail2",
      "translation": [
        0.1,
        0.05499999999999999,
        -0.065
      ],
      "children": [
        32
      ]
    },
    {
      "name": "Tail3",
      "translation": [
        0.08000000000000002,
        0.07500000000000001,
        -0.030000000000000027
      ],
      "children": [
        33
      ]
    },
    {
      "name": "Tail4",
      "translation": [
        0.07,
        0.07500000000000001,
        0.0
      ],
      "children": [
        34
      ]
    },
    {
      "name": "Tail5",
      "translation": [
        0.034999999999999976,
        0.04999999999999999,
        0.0
      ]
    }
  ],
  "materials": [
    {
      "doubleSided": true,
      "name": "BakedMaterial",
      "pbrMetallicRoughness": {
        "baseColorTexture": {
          "index": 0
        },
        "metallicRoughnessTexture": {
          "index": 1
        }
      }
    }
  ],
  "meshes": [
    {
      "name": "MossratS1Body",
      "primitives": [
        {
          "attributes": {
            "POSITION": 0,
            "NORMAL": 1,
            "TEXCOORD_0": 2,
            "JOINTS_0": 3,
            "WEIGHTS_0": 4
          },
          "indices": 5,
          "material": 0
        }
      ]
    }
  ],
  "textures": [
    {
      "sampler": 0,
      "source": 0
    },
    {
      "sampler": 0,
      "source": 1
    }
  ],
  "images": [
    {
      "mimeType": "image/png",
      "name": "texture_0",
      "uri": "MossratTexture0.png"
    },
    {
      "mimeType": "image/png",
      "name": "texture_0_metallic_roughness",
      "uri": "MossratTexture1.png"
    }
  ],
  "accessors": [
    {
      "bufferView": 0,
      "componentType": 5126,
      "count": 17341,
      "type": "VEC3",
      "min": [
        -0.4713110029697418,
        0.0,
        -0.5206412672996521
      ],
      "max": [
        0.4702465832233429,
        0.8999999165534973,
        0.5210813879966736
      ]
    },
    {
      "bufferView": 1,
      "componentType": 5126,
      "count": 17341,
      "type": "VEC3",
      "min": [
        -0.999993085861206,
        -0.9999154210090637,
        -0.9995114803314209
      ],
      "max": [
        0.99983149766922,
        0.9998893737792969,
        0.999883770942688
      ]
    },
    {
      "bufferView": 2,
      "componentType": 5126,
      "count": 17341,
      "type": "VEC2"
    },
    {
      "bufferView": 3,
      "componentType": 5123,
      "count": 17341,
      "type": "VEC4"
    },
    {
      "bufferView": 4,
      "componentType": 5126,
      "count": 17341,
      "type": "VEC4"
    },
    {
      "bufferView": 5,
      "componentType": 5123,
      "count": 30882,
      "type": "SCALAR",
      "min": [
        0
      ],
      "max": [
        17340
      ]
    },
    {
      "bufferView": 6,
      "componentType": 5126,
      "count": 34,
      "type": "MAT4"
    },
    {
      "bufferView": 7,
      "componentType": 5126,
      "count": 97,
      "type": "SCALAR",
      "min": [
        0.0
      ],
      "max": [
        4.0
      ]
    },
    {
      "bufferView": 8,
      "componentType": 5126,
      "count": 97,
      "type": "VEC3",
      "min": [
        0.0,
        -0.001500000013038516,
        0.0
      ],
      "max": [
        0.0,
        0.001500000013038516,
        0.0
      ]
    },
    {
      "bufferView": 9,
      "componentType": 5126,
      "count": 97,
      "type": "VEC4"
    },
    {
      "bufferView": 10,
      "componentType": 5126,
      "count": 97,
      "type": "VEC4"
    },
    {
      "bufferView": 11,
      "componentType": 5126,
      "count": 97,
      "type": "VEC4"
    },
    {
      "bufferView": 12,
      "componentType": 5126,
      "count": 97,
      "type": "VEC4"
    },
    {
      "bufferView": 13,
      "componentType": 5126,
      "count": 97,
      "type": "VEC4"
    },
    {
      "bufferView": 14,
      "componentType": 5126,
      "count": 97,
      "type": "VEC4"
    },
    {
      "bufferView": 15,
      "componentType": 5126,
      "count": 97,
      "type": "VEC4"
    },
    {
      "bufferView": 16,
      "componentType": 5126,
      "count": 97,
      "type": "VEC4"
    },
    {
      "bufferView": 17,
      "componentType": 5126,
      "count": 97,
      "type": "VEC3",
      "min": [
        0.1264999955892563,
        -0.09200000017881393,
        0.16200000047683716
      ],
      "max": [
        0.12950000166893005,
        -0.09200000017881393,
        0.16200000047683716
      ]
    },
    {
      "bufferView": 18,
      "componentType": 5126,
      "count": 97,
      "type": "VEC4"
    },
    {
      "bufferView": 19,
      "componentType": 5126,
      "count": 97,
      "type": "VEC4"
    },
    {
      "bufferView": 20,
      "componentType": 5126,
      "count": 97,
      "type": "VEC4"
    },
    {
      "bufferView": 21,
      "componentType": 5126,
      "count": 97,
      "type": "VEC3",
      "min": [
        -0.13650000095367432,
        -0.07400000095367432,
        0.20000000298023224
      ],
      "max": [
        -0.13349999487400055,
        -0.07400000095367432,
        0.20000000298023224
      ]
    },
    {
      "bufferView": 22,
      "componentType": 5126,
      "count": 97,
      "type": "VEC4"
    },
    {
      "bufferView": 23,
      "componentType": 5126,
      "count": 97,
      "type": "VEC4"
    },
    {
      "bufferView": 24,
      "componentType": 5126,
      "count": 97,
      "type": "VEC4"
    },
    {
      "bufferView": 25,
      "componentType": 5126,
      "count": 97,
      "type": "VEC4"
    },
    {
      "bufferView": 26,
      "componentType": 5126,
      "count": 97,
      "type": "VEC4"
    },
    {
      "bufferView": 27,
      "componentType": 5126,
      "count": 97,
      "type": "VEC4"
    },
    {
      "bufferView": 28,
      "componentType": 5126,
      "count": 97,
      "type": "VEC4"
    },
    {
      "bufferView": 29,
      "componentType": 5126,
      "count": 49,
      "type": "SCALAR",
      "min": [
        0.0
      ],
      "max": [
        2.0
      ]
    },
    {
      "bufferView": 30,
      "componentType": 5126,
      "count": 49,
      "type": "VEC3",
      "min": [
        0.0,
        -0.003000000026077032,
        0.0
      ],
      "max": [
        0.0,
        0.003000000026077032,
        0.0
      ]
    },
    {
      "bufferView": 31,
      "componentType": 5126,
      "count": 49,
      "type": "VEC4"
    },
    {
      "bufferView": 32,
      "componentType": 5126,
      "count": 49,
      "type": "VEC4"
    },
    {
      "bufferView": 33,
      "componentType": 5126,
      "count": 49,
      "type": "VEC4"
    },
    {
      "bufferView": 34,
      "componentType": 5126,
      "count": 49,
      "type": "VEC4"
    },
    {
      "bufferView": 35,
      "componentType": 5126,
      "count": 49,
      "type": "VEC4"
    },
    {
      "bufferView": 36,
      "componentType": 5126,
      "count": 49,
      "type": "VEC4"
    },
    {
      "bufferView": 37,
      "componentType": 5126,
      "count": 49,
      "type": "VEC4"
    },
    {
      "bufferView": 38,
      "componentType": 5126,
      "count": 49,
      "type": "VEC4"
    },
    {
      "bufferView": 39,
      "componentType": 5126,
      "count": 49,
      "type": "VEC3",
      "min": [
        0.1264999955892563,
        -0.09200000017881393,
        0.16200000047683716
      ],
      "max": [
        0.12950000166893005,
        -0.09200000017881393,
        0.16200000047683716
      ]
    },
    {
      "bufferView": 40,
      "componentType": 5126,
      "count": 49,
      "type": "VEC4"
    },
    {
      "bufferView": 41,
      "componentType": 5126,
      "count": 49,
      "type": "VEC4"
    },
    {
      "bufferView": 42,
      "componentType": 5126,
      "count": 49,
      "type": "VEC4"
    },
    {
      "bufferView": 43,
      "componentType": 5126,
      "count": 49,
      "type": "VEC3",
      "min": [
        -0.13650000095367432,
        -0.07400000095367432,
        0.20000000298023224
      ],
      "max": [
        -0.13349999487400055,
        -0.07400000095367432,
        0.20000000298023224
      ]
    },
    {
      "bufferView": 44,
      "componentType": 5126,
      "count": 49,
      "type": "VEC4"
    },
    {
      "bufferView": 45,
      "componentType": 5126,
      "count": 49,
      "type": "VEC4"
    },
    {
      "bufferView": 46,
      "componentType": 5126,
      "count": 49,
      "type": "VEC4"
    },
    {
      "bufferView": 47,
      "componentType": 5126,
      "count": 49,
      "type": "VEC4"
    },
    {
      "bufferView": 48,
      "componentType": 5126,
      "count": 49,
      "type": "VEC4"
    },
    {
      "bufferView": 49,
      "componentType": 5126,
      "count": 49,
      "type": "VEC4"
    },
    {
      "bufferView": 50,
      "componentType": 5126,
      "count": 49,
      "type": "VEC4"
    },
    {
      "bufferView": 51,
      "componentType": 5126,
      "count": 49,
      "type": "VEC4"
    },
    {
      "bufferView": 52,
      "componentType": 5126,
      "count": 49,
      "type": "VEC4"
    },
    {
      "bufferView": 53,
      "componentType": 5126,
      "count": 49,
      "type": "VEC4"
    },
    {
      "bufferView": 54,
      "componentType": 5126,
      "count": 49,
      "type": "VEC4"
    },
    {
      "bufferView": 55,
      "componentType": 5126,
      "count": 49,
      "type": "VEC4"
    },
    {
      "bufferView": 56,
      "componentType": 5126,
      "count": 49,
      "type": "VEC4"
    },
    {
      "bufferView": 57,
      "componentType": 5126,
      "count": 49,
      "type": "VEC4"
    },
    {
      "bufferView": 58,
      "componentType": 5126,
      "count": 49,
      "type": "VEC4"
    },
    {
      "bufferView": 59,
      "componentType": 5126,
      "count": 49,
      "type": "VEC4"
    },
    {
      "bufferView": 60,
      "componentType": 5126,
      "count": 49,
      "type": "VEC4"
    },
    {
      "bufferView": 61,
      "componentType": 5126,
      "count": 49,
      "type": "VEC4"
    },
    {
      "bufferView": 62,
      "componentType": 5126,
      "count": 49,
      "type": "VEC4"
    },
    {
      "bufferView": 63,
      "componentType": 5126,
      "count": 97,
      "type": "SCALAR",
      "min": [
        0.0
      ],
      "max": [
        4.0
      ]
    },
    {
      "bufferView": 64,
      "componentType": 5126,
      "count": 97,
      "type": "VEC3",
      "min": [
        0.0,
        -0.001500000013038516,
        0.0
      ],
      "max": [
        0.0,
        0.001500000013038516,
        0.0
      ]
    },
    {
      "bufferView": 65,
      "componentType": 5126,
      "count": 97,
      "type": "VEC4"
    },
    {
      "bufferView": 66,
      "componentType": 5126,
      "count": 97,
      "type": "VEC4"
    },
    {
      "bufferView": 67,
      "componentType": 5126,
      "count": 97,
      "type": "VEC4"
    },
    {
      "bufferView": 68,
      "componentType": 5126,
      "count": 97,
      "type": "VEC4"
    },
    {
      "bufferView": 69,
      "componentType": 5126,
      "count": 97,
      "type": "VEC4"
    },
    {
      "bufferView": 70,
      "componentType": 5126,
      "count": 97,
      "type": "VEC4"
    },
    {
      "bufferView": 71,
      "componentType": 5126,
      "count": 97,
      "type": "VEC4"
    },
    {
      "bufferView": 72,
      "componentType": 5126,
      "count": 97,
      "type": "VEC4"
    },
    {
      "bufferView": 73,
      "componentType": 5126,
      "count": 97,
      "type": "VEC3",
      "min": [
        0.1264999955892563,
        -0.09200000017881393,
        0.16200000047683716
      ],
      "max": [
        0.12950000166893005,
        -0.09200000017881393,
        0.16200000047683716
      ]
    },
    {
      "bufferView": 74,
      "componentType": 5126,
      "count": 97,
      "type": "VEC4"
    },
    {
      "bufferView": 75,
      "componentType": 5126,
      "count": 97,
      "type": "VEC4"
    },
    {
      "bufferView": 76,
      "componentType": 5126,
      "count": 97,
      "type": "VEC4"
    },
    {
      "bufferView": 77,
      "componentType": 5126,
      "count": 97,
      "type": "VEC3",
      "min": [
        -0.13650000095367432,
        -0.07400000095367432,
        0.20000000298023224
      ],
      "max": [
        -0.13349999487400055,
        -0.07400000095367432,
        0.20000000298023224
      ]
    },
    {
      "bufferView": 78,
      "componentType": 5126,
      "count": 97,
      "type": "VEC4"
    },
    {
      "bufferView": 79,
      "componentType": 5126,
      "count": 97,
      "type": "VEC4"
    },
    {
      "bufferView": 80,
      "componentType": 5126,
      "count": 97,
      "type": "VEC4"
    },
    {
      "bufferView": 81,
      "componentType": 5126,
      "count": 97,
      "type": "VEC4"
    },
    {
      "bufferView": 82,
      "componentType": 5126,
      "count": 97,
      "type": "VEC4"
    },
    {
      "bufferView": 83,
      "componentType": 5126,
      "count": 97,
      "type": "VEC4"
    },
    {
      "bufferView": 84,
      "componentType": 5126,
      "count": 97,
      "type": "VEC4"
    },
    {
      "bufferView": 85,
      "componentType": 5126,
      "count": 97,
      "type": "SCALAR",
      "min": [
        0.0
      ],
      "max": [
        4.0
      ]
    },
    {
      "bufferView": 86,
      "componentType": 5126,
      "count": 97,
      "type": "VEC3",
      "min": [
        0.0,
        -0.001500000013038516,
        0.0
      ],
      "max": [
        0.0,
        0.001500000013038516,
        0.0
      ]
    },
    {
      "bufferView": 87,
      "componentType": 5126,
      "count": 97,
      "type": "VEC4"
    },
    {
      "bufferView": 88,
      "componentType": 5126,
      "count": 97,
      "type": "VEC4"
    },
    {
      "bufferView": 89,
      "componentType": 5126,
      "count": 97,
      "type": "VEC4"
    },
    {
      "bufferView": 90,
      "componentType": 5126,
      "count": 97,
      "type": "VEC4"
    },
    {
      "bufferView": 91,
      "componentType": 5126,
      "count": 97,
      "type": "VEC4"
    },
    {
      "bufferView": 92,
      "componentType": 5126,
      "count": 97,
      "type": "VEC4"
    },
    {
      "bufferView": 93,
      "componentType": 5126,
      "count": 97,
      "type": "VEC4"
    },
    {
      "bufferView": 94,
      "componentType": 5126,
      "count": 97,
      "type": "VEC4"
    },
    {
      "bufferView": 95,
      "componentType": 5126,
      "count": 97,
      "type": "VEC3",
      "min": [
        0.1264999955892563,
        -0.09200000017881393,
        0.16200000047683716
      ],
      "max": [
        0.12950000166893005,
        -0.09200000017881393,
        0.16200000047683716
      ]
    },
    {
      "bufferView": 96,
      "componentType": 5126,
      "count": 97,
      "type": "VEC4"
    },
    {
      "bufferView": 97,
      "componentType": 5126,
      "count": 97,
      "type": "VEC4"
    },
    {
      "bufferView": 98,
      "componentType": 5126,
      "count": 97,
      "type": "VEC4"
    },
    {
      "bufferView": 99,
      "componentType": 5126,
      "count": 97,
      "type": "VEC3",
      "min": [
        -0.13650000095367432,
        -0.07400000095367432,
        0.20000000298023224
      ],
      "max": [
        -0.13349999487400055,
        -0.07400000095367432,
        0.20000000298023224
      ]
    },
    {
      "bufferView": 100,
      "componentType": 5126,
      "count": 97,
      "type": "VEC4"
    },
    {
      "bufferView": 101,
      "componentType": 5126,
      "count": 97,
      "type": "VEC4"
    },
    {
      "bufferView": 102,
      "componentType": 5126,
      "count": 97,
      "type": "VEC4"
    },
    {
      "bufferView": 103,
      "componentType": 5126,
      "count": 97,
      "type": "VEC4"
    },
    {
      "bufferView": 104,
      "componentType": 5126,
      "count": 97,
      "type": "VEC4"
    },
    {
      "bufferView": 105,
      "componentType": 5126,
      "count": 97,
      "type": "VEC4"
    },
    {
      "bufferView": 106,
      "componentType": 5126,
      "count": 97,
      "type": "VEC4"
    },
    {
      "bufferView": 107,
      "componentType": 5126,
      "count": 97,
      "type": "VEC4"
    },
    {
      "bufferView": 108,
      "componentType": 5126,
      "count": 97,
      "type": "VEC4"
    },
    {
      "bufferView": 109,
      "componentType": 5126,
      "count": 97,
      "type": "VEC4"
    },
    {
      "bufferView": 110,
      "componentType": 5126,
      "count": 97,
      "type": "VEC4"
    },
    {
      "bufferView": 111,
      "componentType": 5126,
      "count": 97,
      "type": "VEC4"
    },
    {
      "bufferView": 112,
      "componentType": 5126,
      "count": 97,
      "type": "VEC4"
    },
    {
      "bufferView": 113,
      "componentType": 5126,
      "count": 97,
      "type": "VEC4"
    },
    {
      "bufferView": 114,
      "componentType": 5126,
      "count": 97,
      "type": "VEC4"
    },
    {
      "bufferView": 115,
      "componentType": 5126,
      "count": 97,
      "type": "VEC4"
    },
    {
      "bufferView": 116,
      "componentType": 5126,
      "count": 97,
      "type": "VEC4"
    },
    {
      "bufferView": 117,
      "componentType": 5126,
      "count": 97,
      "type": "VEC4"
    },
    {
      "bufferView": 118,
      "componentType": 5126,
      "count": 97,
      "type": "VEC4"
    }
  ],
  "bufferViews": [
    {
      "buffer": 0,
      "byteOffset": 0,
      "byteLength": 208092
    },
    {
      "buffer": 0,
      "byteOffset": 208092,
      "byteLength": 208092
    },
    {
      "buffer": 0,
      "byteOffset": 416184,
      "byteLength": 138728
    },
    {
      "buffer": 0,
      "byteOffset": 554912,
      "byteLength": 138728
    },
    {
      "buffer": 0,
      "byteOffset": 693640,
      "byteLength": 277456
    },
    {
      "buffer": 0,
      "byteOffset": 971096,
      "byteLength": 61764
    },
    {
      "buffer": 0,
      "byteOffset": 1032860,
      "byteLength": 2176
    },
    {
      "buffer": 0,
      "byteOffset": 1035036,
      "byteLength": 388
    },
    {
      "buffer": 0,
      "byteOffset": 1035424,
      "byteLength": 1164
    },
    {
      "buffer": 0,
      "byteOffset": 1036588,
      "byteLength": 1552
    },
    {
      "buffer": 0,
      "byteOffset": 1038140,
      "byteLength": 1552
    },
    {
      "buffer": 0,
      "byteOffset": 1039692,
      "byteLength": 1552
    },
    {
      "buffer": 0,
      "byteOffset": 1041244,
      "byteLength": 1552
    },
    {
      "buffer": 0,
      "byteOffset": 1042796,
      "byteLength": 1552
    },
    {
      "buffer": 0,
      "byteOffset": 1044348,
      "byteLength": 1552
    },
    {
      "buffer": 0,
      "byteOffset": 1045900,
      "byteLength": 1552
    },
    {
      "buffer": 0,
      "byteOffset": 1047452,
      "byteLength": 1552
    },
    {
      "buffer": 0,
      "byteOffset": 1049004,
      "byteLength": 1164
    },
    {
      "buffer": 0,
      "byteOffset": 1050168,
      "byteLength": 1552
    },
    {
      "buffer": 0,
      "byteOffset": 1051720,
      "byteLength": 1552
    },
    {
      "buffer": 0,
      "byteOffset": 1053272,
      "byteLength": 1552
    },
    {
      "buffer": 0,
      "byteOffset": 1054824,
      "byteLength": 1164
    },
    {
      "buffer": 0,
      "byteOffset": 1055988,
      "byteLength": 1552
    },
    {
      "buffer": 0,
      "byteOffset": 1057540,
      "byteLength": 1552
    },
    {
      "buffer": 0,
      "byteOffset": 1059092,
      "byteLength": 1552
    },
    {
      "buffer": 0,
      "byteOffset": 1060644,
      "byteLength": 1552
    },
    {
      "buffer": 0,
      "byteOffset": 1062196,
      "byteLength": 1552
    },
    {
      "buffer": 0,
      "byteOffset": 1063748,
      "byteLength": 1552
    },
    {
      "buffer": 0,
      "byteOffset": 1065300,
      "byteLength": 1552
    },
    {
      "buffer": 0,
      "byteOffset": 1066852,
      "byteLength": 196
    },
    {
      "buffer": 0,
      "byteOffset": 1067048,
      "byteLength": 588
    },
    {
      "buffer": 0,
      "byteOffset": 1067636,
      "byteLength": 784
    },
    {
      "buffer": 0,
      "byteOffset": 1068420,
      "byteLength": 784
    },
    {
      "buffer": 0,
      "byteOffset": 1069204,
      "byteLength": 784
    },
    {
      "buffer": 0,
      "byteOffset": 1069988,
      "byteLength": 784
    },
    {
      "buffer": 0,
      "byteOffset": 1070772,
      "byteLength": 784
    },
    {
      "buffer": 0,
      "byteOffset": 1071556,
      "byteLength": 784
    },
    {
      "buffer": 0,
      "byteOffset": 1072340,
      "byteLength": 784
    },
    {
      "buffer": 0,
      "byteOffset": 1073124,
      "byteLength": 784
    },
    {
      "buffer": 0,
      "byteOffset": 1073908,
      "byteLength": 588
    },
    {
      "buffer": 0,
      "byteOffset": 1074496,
      "byteLength": 784
    },
    {
      "buffer": 0,
      "byteOffset": 1075280,
      "byteLength": 784
    },
    {
      "buffer": 0,
      "byteOffset": 1076064,
      "byteLength": 784
    },
    {
      "buffer": 0,
      "byteOffset": 1076848,
      "byteLength": 588
    },
    {
      "buffer": 0,
      "byteOffset": 1077436,
      "byteLength": 784
    },
    {
      "buffer": 0,
      "byteOffset": 1078220,
      "byteLength": 784
    },
    {
      "buffer": 0,
      "byteOffset": 1079004,
      "byteLength": 784
    },
    {
      "buffer": 0,
      "byteOffset": 1079788,
      "byteLength": 784
    },
    {
      "buffer": 0,
      "byteOffset": 1080572,
      "byteLength": 784
    },
    {
      "buffer": 0,
      "byteOffset": 1081356,
      "byteLength": 784
    },
    {
      "buffer": 0,
      "byteOffset": 1082140,
      "byteLength": 784
    },
    {
      "buffer": 0,
      "byteOffset": 1082924,
      "byteLength": 784
    },
    {
      "buffer": 0,
      "byteOffset": 1083708,
      "byteLength": 784
    },
    {
      "buffer": 0,
      "byteOffset": 1084492,
      "byteLength": 784
    },
    {
      "buffer": 0,
      "byteOffset": 1085276,
      "byteLength": 784
    },
    {
      "buffer": 0,
      "byteOffset": 1086060,
      "byteLength": 784
    },
    {
      "buffer": 0,
      "byteOffset": 1086844,
      "byteLength": 784
    },
    {
      "buffer": 0,
      "byteOffset": 1087628,
      "byteLength": 784
    },
    {
      "buffer": 0,
      "byteOffset": 1088412,
      "byteLength": 784
    },
    {
      "buffer": 0,
      "byteOffset": 1089196,
      "byteLength": 784
    },
    {
      "buffer": 0,
      "byteOffset": 1089980,
      "byteLength": 784
    },
    {
      "buffer": 0,
      "byteOffset": 1090764,
      "byteLength": 784
    },
    {
      "buffer": 0,
      "byteOffset": 1091548,
      "byteLength": 784
    },
    {
      "buffer": 0,
      "byteOffset": 1092332,
      "byteLength": 388
    },
    {
      "buffer": 0,
      "byteOffset": 1092720,
      "byteLength": 1164
    },
    {
      "buffer": 0,
      "byteOffset": 1093884,
      "byteLength": 1552
    },
    {
      "buffer": 0,
      "byteOffset": 1095436,
      "byteLength": 1552
    },
    {
      "buffer": 0,
      "byteOffset": 1096988,
      "byteLength": 1552
    },
    {
      "buffer": 0,
      "byteOffset": 1098540,
      "byteLength": 1552
    },
    {
      "buffer": 0,
      "byteOffset": 1100092,
      "byteLength": 1552
    },
    {
      "buffer": 0,
      "byteOffset": 1101644,
      "byteLength": 1552
    },
    {
      "buffer": 0,
      "byteOffset": 1103196,
      "byteLength": 1552
    },
    {
      "buffer": 0,
      "byteOffset": 1104748,
      "byteLength": 1552
    },
    {
      "buffer": 0,
      "byteOffset": 1106300,
      "byteLength": 1164
    },
    {
      "buffer": 0,
      "byteOffset": 1107464,
      "byteLength": 1552
    },
    {
      "buffer": 0,
      "byteOffset": 1109016,
      "byteLength": 1552
    },
    {
      "buffer": 0,
      "byteOffset": 1110568,
      "byteLength": 1552
    },
    {
      "buffer": 0,
      "byteOffset": 1112120,
      "byteLength": 1164
    },
    {
      "buffer": 0,
      "byteOffset": 1113284,
      "byteLength": 1552
    },
    {
      "buffer": 0,
      "byteOffset": 1114836,
      "byteLength": 1552
    },
    {
      "buffer": 0,
      "byteOffset": 1116388,
      "byteLength": 1552
    },
    {
      "buffer": 0,
      "byteOffset": 1117940,
      "byteLength": 1552
    },
    {
      "buffer": 0,
      "byteOffset": 1119492,
      "byteLength": 1552
    },
    {
      "buffer": 0,
      "byteOffset": 1121044,
      "byteLength": 1552
    },
    {
      "buffer": 0,
      "byteOffset": 1122596,
      "byteLength": 1552
    },
    {
      "buffer": 0,
      "byteOffset": 1124148,
      "byteLength": 388
    },
    {
      "buffer": 0,
      "byteOffset": 1124536,
      "byteLength": 1164
    },
    {
      "buffer": 0,
      "byteOffset": 1125700,
      "byteLength": 1552
    },
    {
      "buffer": 0,
      "byteOffset": 1127252,
      "byteLength": 1552
    },
    {
      "buffer": 0,
      "byteOffset": 1128804,
      "byteLength": 1552
    },
    {
      "buffer": 0,
      "byteOffset": 1130356,
      "byteLength": 1552
    },
    {
      "buffer": 0,
      "byteOffset": 1131908,
      "byteLength": 1552
    },
    {
      "buffer": 0,
      "byteOffset": 1133460,
      "byteLength": 1552
    },
    {
      "buffer": 0,
      "byteOffset": 1135012,
      "byteLength": 1552
    },
    {
      "buffer": 0,
      "byteOffset": 1136564,
      "byteLength": 1552
    },
    {
      "buffer": 0,
      "byteOffset": 1138116,
      "byteLength": 1164
    },
    {
      "buffer": 0,
      "byteOffset": 1139280,
      "byteLength": 1552
    },
    {
      "buffer": 0,
      "byteOffset": 1140832,
      "byteLength": 1552
    },
    {
      "buffer": 0,
      "byteOffset": 1142384,
      "byteLength": 1552
    },
    {
      "buffer": 0,
      "byteOffset": 1143936,
      "byteLength": 1164
    },
    {
      "buffer": 0,
      "byteOffset": 1145100,
      "byteLength": 1552
    },
    {
      "buffer": 0,
      "byteOffset": 1146652,
      "byteLength": 1552
    },
    {
      "buffer": 0,
      "byteOffset": 1148204,
      "byteLength": 1552
    },
    {
      "buffer": 0,
      "byteOffset": 1149756,
      "byteLength": 1552
    },
    {
      "buffer": 0,
      "byteOffset": 1151308,
      "byteLength": 1552
    },
    {
      "buffer": 0,
      "byteOffset": 1152860,
      "byteLength": 1552
    },
    {
      "buffer": 0,
      "byteOffset": 1154412,
      "byteLength": 1552
    },
    {
      "buffer": 0,
      "byteOffset": 1155964,
      "byteLength": 1552
    },
    {
      "buffer": 0,
      "byteOffset": 1157516,
      "byteLength": 1552
    },
    {
      "buffer": 0,
      "byteOffset": 1159068,
      "byteLength": 1552
    },
    {
      "buffer": 0,
      "byteOffset": 1160620,
      "byteLength": 1552
    },
    {
      "buffer": 0,
      "byteOffset": 1162172,
      "byteLength": 1552
    },
    {
      "buffer": 0,
      "byteOffset": 1163724,
      "byteLength": 1552
    },
    {
      "buffer": 0,
      "byteOffset": 1165276,
      "byteLength": 1552
    },
    {
      "buffer": 0,
      "byteOffset": 1166828,
      "byteLength": 1552
    },
    {
      "buffer": 0,
      "byteOffset": 1168380,
      "byteLength": 1552
    },
    {
      "buffer": 0,
      "byteOffset": 1169932,
      "byteLength": 1552
    },
    {
      "buffer": 0,
      "byteOffset": 1171484,
      "byteLength": 1552
    },
    {
      "buffer": 0,
      "byteOffset": 1173036,
      "byteLength": 1552
    }
  ],
  "samplers": [
    {
      "magFilter": 9729,
      "minFilter": 9987
    }
  ],
  "buffers": [
    {
      "uri": "MossratS1Rigged.bin",
      "byteLength": 1174588
    }
  ],
  "skins": [
    {
      "name": "MossratFullBodyRig",
      "skeleton": 1,
      "joints": [
        1,
        2,
        3,
        4,
        5,
        6,
        7,
        8,
        9,
        10,
        11,
        12,
        13,
        14,
        15,
        16,
        17,
        18,
        19,
        20,
        21,
        22,
        23,
        24,
        25,
        26,
        27,
        28,
        29,
        30,
        31,
        32,
        33,
        34
      ],
      "inverseBindMatrices": 6
    }
  ],
  "animations": [
    {
      "name": "Idle",
      "samplers": [
        {
          "input": 7,
          "output": 8,
          "interpolation": "LINEAR"
        },
        {
          "input": 7,
          "output": 9,
          "interpolation": "LINEAR"
        },
        {
          "input": 7,
          "output": 10,
          "interpolation": "LINEAR"
        },
        {
          "input": 7,
          "output": 11,
          "interpolation": "LINEAR"
        },
        {
          "input": 7,
          "output": 12,
          "interpolation": "LINEAR"
        },
        {
          "input": 7,
          "output": 13,
          "interpolation": "LINEAR"
        },
        {
          "input": 7,
          "output": 14,
          "interpolation": "LINEAR"
        },
        {
          "input": 7,
          "output": 15,
          "interpolation": "LINEAR"
        },
        {
          "input": 7,
          "output": 16,
          "interpolation": "LINEAR"
        },
        {
          "input": 7,
          "output": 17,
          "interpolation": "LINEAR"
        },
        {
          "input": 7,
          "output": 18,
          "interpolation": "LINEAR"
        },
        {
          "input": 7,
          "output": 19,
          "interpolation": "LINEAR"
        },
        {
          "input": 7,
          "output": 20,
          "interpolation": "LINEAR"
        },
        {
          "input": 7,
          "output": 21,
          "interpolation": "LINEAR"
        },
        {
          "input": 7,
          "output": 22,
          "interpolation": "LINEAR"
        },
        {
          "input": 7,
          "output": 23,
          "interpolation": "LINEAR"
        },
        {
          "input": 7,
          "output": 24,
          "interpolation": "LINEAR"
        },
        {
          "input": 7,
          "output": 25,
          "interpolation": "LINEAR"
        },
        {
          "input": 7,
          "output": 26,
          "interpolation": "LINEAR"
        },
        {
          "input": 7,
          "output": 27,
          "interpolation": "LINEAR"
        },
        {
          "input": 7,
          "output": 28,
          "interpolation": "LINEAR"
        }
      ],
      "channels": [
        {
          "sampler": 0,
          "target": {
            "node": 1,
            "path": "translation"
          }
        },
        {
          "sampler": 1,
          "target": {
            "node": 3,
            "path": "rotation"
          }
        },
        {
          "sampler": 2,
          "target": {
            "node": 4,
            "path": "rotation"
          }
        },
        {
          "sampler": 3,
          "target": {
            "node": 5,
            "path": "rotation"
          }
        },
        {
          "sampler": 4,
          "target": {
            "node": 6,
            "path": "rotation"
          }
        },
        {
          "sampler": 5,
          "target": {
            "node": 7,
            "path": "rotation"
          }
        },
        {
          "sampler": 6,
          "target": {
            "node": 10,
            "path": "rotation"
          }
        },
        {
          "sampler": 7,
          "target": {
            "node": 11,
            "path": "rotation"
          }
        },
        {
          "sampler": 8,
          "target": {
            "node": 16,
            "path": "rotation"
          }
        },
        {
          "sampler": 9,
          "target": {
            "node": 8,
            "path": "translation"
          }
        },
        {
          "sampler": 10,
          "target": {
            "node": 12,
            "path": "rotation"
          }
        },
        {
          "sampler": 11,
          "target": {
            "node": 13,
            "path": "rotation"
          }
        },
        {
          "sampler": 12,
          "target": {
            "node": 17,
            "path": "rotation"
          }
        },
        {
          "sampler": 13,
          "target": {
            "node": 9,
            "path": "translation"
          }
        },
        {
          "sampler": 14,
          "target": {
            "node": 14,
            "path": "rotation"
          }
        },
        {
          "sampler": 15,
          "target": {
            "node": 15,
            "path": "rotation"
          }
        },
        {
          "sampler": 16,
          "target": {
            "node": 30,
            "path": "rotation"
          }
        },
        {
          "sampler": 17,
          "target": {
            "node": 31,
            "path": "rotation"
          }
        },
        {
          "sampler": 18,
          "target": {
            "node": 32,
            "path": "rotation"
          }
        },
        {
          "sampler": 19,
          "target": {
            "node": 33,
            "path": "rotation"
          }
        },
        {
          "sampler": 20,
          "target": {
            "node": 34,
            "path": "rotation"
          }
        }
      ]
    },
    {
      "name": "Walk",
      "samplers": [
        {
          "input": 29,
          "output": 30,
          "interpolation": "LINEAR"
        },
        {
          "input": 29,
          "output": 31,
          "interpolation": "LINEAR"
        },
        {
          "input": 29,
          "output": 32,
          "interpolation": "LINEAR"
        },
        {
          "input": 29,
          "output": 33,
          "interpolation": "LINEAR"
        },
        {
          "input": 29,
          "output": 34,
          "interpolation": "LINEAR"
        },
        {
          "input": 29,
          "output": 35,
          "interpolation": "LINEAR"
        },
        {
          "input": 29,
          "output": 36,
          "interpolation": "LINEAR"
        },
        {
          "input": 29,
          "output": 37,
          "interpolation": "LINEAR"
        },
        {
          "input": 29,
          "output": 38,
          "interpolation": "LINEAR"
        },
        {
          "input": 29,
          "output": 39,
          "interpolation": "LINEAR"
        },
        {
          "input": 29,
          "output": 40,
          "interpolation": "LINEAR"
        },
        {
          "input": 29,
          "output": 41,
          "interpolation": "LINEAR"
        },
        {
          "input": 29,
          "output": 42,
          "interpolation": "LINEAR"
        },
        {
          "input": 29,
          "output": 43,
          "interpolation": "LINEAR"
        },
        {
          "input": 29,
          "output": 44,
          "interpolation": "LINEAR"
        },
        {
          "input": 29,
          "output": 45,
          "interpolation": "LINEAR"
        },
        {
          "input": 29,
          "output": 46,
          "interpolation": "LINEAR"
        },
        {
          "input": 29,
          "output": 47,
          "interpolation": "LINEAR"
        },
        {
          "input": 29,
          "output": 48,
          "interpolation": "LINEAR"
        },
        {
          "input": 29,
          "output": 49,
          "interpolation": "LINEAR"
        },
        {
          "input": 29,
          "output": 50,
          "interpolation": "LINEAR"
        },
        {
          "input": 29,
          "output": 51,
          "interpolation": "LINEAR"
        },
        {
          "input": 29,
          "output": 52,
          "interpolation": "LINEAR"
        },
        {
          "input": 29,
          "output": 53,
          "interpolation": "LINEAR"
        },
        {
          "input": 29,
          "output": 54,
          "interpolation": "LINEAR"
        },
        {
          "input": 29,
          "output": 55,
          "interpolation": "LINEAR"
        },
        {
          "input": 29,
          "output": 56,
          "interpolation": "LINEAR"
        },
        {
          "input": 29,
          "output": 57,
          "interpolation": "LINEAR"
        },
        {
          "input": 29,
          "output": 58,
          "interpolation": "LINEAR"
        },
        {
          "input": 29,
          "output": 59,
          "interpolation": "LINEAR"
        },
        {
          "input": 29,
          "output": 60,
          "interpolation": "LINEAR"
        },
        {
          "input": 29,
          "output": 61,
          "interpolation": "LINEAR"
        },
        {
          "input": 29,
          "output": 62,
          "interpolation": "LINEAR"
        }
      ],
      "channels": [
        {
          "sampler": 0,
          "target": {
            "node": 1,
            "path": "translation"
          }
        },
        {
          "sampler": 1,
          "target": {
            "node": 3,
            "path": "rotation"
          }
        },
        {
          "sampler": 2,
          "target": {
            "node": 4,
            "path": "rotation"
          }
        },
        {
          "sampler": 3,
          "target": {
            "node": 5,
            "path": "rotation"
          }
        },
        {
          "sampler": 4,
          "target": {
            "node": 6,
            "path": "rotation"
          }
        },
        {
          "sampler": 5,
          "target": {
            "node": 7,
            "path": "rotation"
          }
        },
        {
          "sampler": 6,
          "target": {
            "node": 10,
            "path": "rotation"
          }
        },
        {
          "sampler": 7,
          "target": {
            "node": 11,
            "path": "rotation"
          }
        },
        {
          "sampler": 8,
          "target": {
            "node": 16,
            "path": "rotation"
          }
        },
        {
          "sampler": 9,
          "target": {
            "node": 8,
            "path": "translation"
          }
        },
        {
          "sampler": 10,
          "target": {
            "node": 12,
            "path": "rotation"
          }
        },
        {
          "sampler": 11,
          "target": {
            "node": 13,
            "path": "rotation"
          }
        },
        {
          "sampler": 12,
          "target": {
            "node": 17,
            "path": "rotation"
          }
        },
        {
          "sampler": 13,
          "target": {
            "node": 9,
            "path": "translation"
          }
        },
        {
          "sampler": 14,
          "target": {
            "node": 14,
            "path": "rotation"
          }
        },
        {
          "sampler": 15,
          "target": {
            "node": 15,
            "path": "rotation"
          }
        },
        {
          "sampler": 16,
          "target": {
            "node": 30,
            "path": "rotation"
          }
        },
        {
          "sampler": 17,
          "target": {
            "node": 31,
            "path": "rotation"
          }
        },
        {
          "sampler": 18,
          "target": {
            "node": 32,
            "path": "rotation"
          }
        },
        {
          "sampler": 19,
          "target": {
            "node": 33,
            "path": "rotation"
          }
        },
        {
          "sampler": 20,
          "target": {
            "node": 34,
            "path": "rotation"
          }
        },
        {
          "sampler": 21,
          "target": {
            "node": 18,
            "path": "rotation"
          }
        },
        {
          "sampler": 22,
          "target": {
            "node": 19,
            "path": "rotation"
          }
        },
        {
          "sampler": 23,
          "target": {
            "node": 20,
            "path": "rotation"
          }
        },
        {
          "sampler": 24,
          "target": {
            "node": 21,
            "path": "rotation"
          }
        },
        {
          "sampler": 25,
          "target": {
            "node": 22,
            "path": "rotation"
          }
        },
        {
          "sampler": 26,
          "target": {
            "node": 23,
            "path": "rotation"
          }
        },
        {
          "sampler": 27,
          "target": {
            "node": 24,
            "path": "rotation"
          }
        },
        {
          "sampler": 28,
          "target": {
            "node": 25,
            "path": "rotation"
          }
        },
        {
          "sampler": 29,
          "target": {
            "node": 26,
            "path": "rotation"
          }
        },
        {
          "sampler": 30,
          "target": {
            "node": 27,
            "path": "rotation"
          }
        },
        {
          "sampler": 31,
          "target": {
            "node": 28,
            "path": "rotation"
          }
        },
        {
          "sampler": 32,
          "target": {
            "node": 29,
            "path": "rotation"
          }
        }
      ]
    },
    {
      "name": "LookAround",
      "samplers": [
        {
          "input": 63,
          "output": 64,
          "interpolation": "LINEAR"
        },
        {
          "input": 63,
          "output": 65,
          "interpolation": "LINEAR"
        },
        {
          "input": 63,
          "output": 66,
          "interpolation": "LINEAR"
        },
        {
          "input": 63,
          "output": 67,
          "interpolation": "LINEAR"
        },
        {
          "input": 63,
          "output": 68,
          "interpolation": "LINEAR"
        },
        {
          "input": 63,
          "output": 69,
          "interpolation": "LINEAR"
        },
        {
          "input": 63,
          "output": 70,
          "interpolation": "LINEAR"
        },
        {
          "input": 63,
          "output": 71,
          "interpolation": "LINEAR"
        },
        {
          "input": 63,
          "output": 72,
          "interpolation": "LINEAR"
        },
        {
          "input": 63,
          "output": 73,
          "interpolation": "LINEAR"
        },
        {
          "input": 63,
          "output": 74,
          "interpolation": "LINEAR"
        },
        {
          "input": 63,
          "output": 75,
          "interpolation": "LINEAR"
        },
        {
          "input": 63,
          "output": 76,
          "interpolation": "LINEAR"
        },
        {
          "input": 63,
          "output": 77,
          "interpolation": "LINEAR"
        },
        {
          "input": 63,
          "output": 78,
          "interpolation": "LINEAR"
        },
        {
          "input": 63,
          "output": 79,
          "interpolation": "LINEAR"
        },
        {
          "input": 63,
          "output": 80,
          "interpolation": "LINEAR"
        },
        {
          "input": 63,
          "output": 81,
          "interpolation": "LINEAR"
        },
        {
          "input": 63,
          "output": 82,
          "interpolation": "LINEAR"
        },
        {
          "input": 63,
          "output": 83,
          "interpolation": "LINEAR"
        },
        {
          "input": 63,
          "output": 84,
          "interpolation": "LINEAR"
        }
      ],
      "channels": [
        {
          "sampler": 0,
          "target": {
            "node": 1,
            "path": "translation"
          }
        },
        {
          "sampler": 1,
          "target": {
            "node": 3,
            "path": "rotation"
          }
        },
        {
          "sampler": 2,
          "target": {
            "node": 4,
            "path": "rotation"
          }
        },
        {
          "sampler": 3,
          "target": {
            "node": 5,
            "path": "rotation"
          }
        },
        {
          "sampler": 4,
          "target": {
            "node": 6,
            "path": "rotation"
          }
        },
        {
          "sampler": 5,
          "target": {
            "node": 7,
            "path": "rotation"
          }
        },
        {
          "sampler": 6,
          "target": {
            "node": 10,
            "path": "rotation"
          }
        },
        {
          "sampler": 7,
          "target": {
            "node": 11,
            "path": "rotation"
          }
        },
        {
          "sampler": 8,
          "target": {
            "node": 16,
            "path": "rotation"
          }
        },
        {
          "sampler": 9,
          "target": {
            "node": 8,
            "path": "translation"
          }
        },
        {
          "sampler": 10,
          "target": {
            "node": 12,
            "path": "rotation"
          }
        },
        {
          "sampler": 11,
          "target": {
            "node": 13,
            "path": "rotation"
          }
        },
        {
          "sampler": 12,
          "target": {
            "node": 17,
            "path": "rotation"
          }
        },
        {
          "sampler": 13,
          "target": {
            "node": 9,
            "path": "translation"
          }
        },
        {
          "sampler": 14,
          "target": {
            "node": 14,
            "path": "rotation"
          }
        },
        {
          "sampler": 15,
          "target": {
            "node": 15,
            "path": "rotation"
          }
        },
        {
          "sampler": 16,
          "target": {
            "node": 30,
            "path": "rotation"
          }
        },
        {
          "sampler": 17,
          "target": {
            "node": 31,
            "path": "rotation"
          }
        },
        {
          "sampler": 18,
          "target": {
            "node": 32,
            "path": "rotation"
          }
        },
        {
          "sampler": 19,
          "target": {
            "node": 33,
            "path": "rotation"
          }
        },
        {
          "sampler": 20,
          "target": {
            "node": 34,
            "path": "rotation"
          }
        }
      ]
    },
    {
      "name": "RigRange",
      "samplers": [
        {
          "input": 85,
          "output": 86,
          "interpolation": "LINEAR"
        },
        {
          "input": 85,
          "output": 87,
          "interpolation": "LINEAR"
        },
        {
          "input": 85,
          "output": 88,
          "interpolation": "LINEAR"
        },
        {
          "input": 85,
          "output": 89,
          "interpolation": "LINEAR"
        },
        {
          "input": 85,
          "output": 90,
          "interpolation": "LINEAR"
        },
        {
          "input": 85,
          "output": 91,
          "interpolation": "LINEAR"
        },
        {
          "input": 85,
          "output": 92,
          "interpolation": "LINEAR"
        },
        {
          "input": 85,
          "output": 93,
          "interpolation": "LINEAR"
        },
        {
          "input": 85,
          "output": 94,
          "interpolation": "LINEAR"
        },
        {
          "input": 85,
          "output": 95,
          "interpolation": "LINEAR"
        },
        {
          "input": 85,
          "output": 96,
          "interpolation": "LINEAR"
        },
        {
          "input": 85,
          "output": 97,
          "interpolation": "LINEAR"
        },
        {
          "input": 85,
          "output": 98,
          "interpolation": "LINEAR"
        },
        {
          "input": 85,
          "output": 99,
          "interpolation": "LINEAR"
        },
        {
          "input": 85,
          "output": 100,
          "interpolation": "LINEAR"
        },
        {
          "input": 85,
          "output": 101,
          "interpolation": "LINEAR"
        },
        {
          "input": 85,
          "output": 102,
          "interpolation": "LINEAR"
        },
        {
          "input": 85,
          "output": 103,
          "interpolation": "LINEAR"
        },
        {
          "input": 85,
          "output": 104,
          "interpolation": "LINEAR"
        },
        {
          "input": 85,
          "output": 105,
          "interpolation": "LINEAR"
        },
        {
          "input": 85,
          "output": 106,
          "interpolation": "LINEAR"
        },
        {
          "input": 85,
          "output": 107,
          "interpolation": "LINEAR"
        },
        {
          "input": 85,
          "output": 108,
          "interpolation": "LINEAR"
        },
        {
          "input": 85,
          "output": 109,
          "interpolation": "LINEAR"
        },
        {
          "input": 85,
          "output": 110,
          "interpolation": "LINEAR"
        },
        {
          "input": 85,
          "output": 111,
          "interpolation": "LINEAR"
        },
        {
          "input": 85,
          "output": 112,
          "interpolation": "LINEAR"
        },
        {
          "input": 85,
          "output": 113,
          "interpolation": "LINEAR"
        },
        {
          "input": 85,
          "output": 114,
          "interpolation": "LINEAR"
        },
        {
          "input": 85,
          "output": 115,
          "interpolation": "LINEAR"
        },
        {
          "input": 85,
          "output": 116,
          "interpolation": "LINEAR"
        },
        {
          "input": 85,
          "output": 117,
          "interpolation": "LINEAR"
        },
        {
          "input": 85,
          "output": 118,
          "interpolation": "LINEAR"
        }
      ],
      "channels": [
        {
          "sampler": 0,
          "target": {
            "node": 1,
            "path": "translation"
          }
        },
        {
          "sampler": 1,
          "target": {
            "node": 3,
            "path": "rotation"
          }
        },
        {
          "sampler": 2,
          "target": {
            "node": 4,
            "path": "rotation"
          }
        },
        {
          "sampler": 3,
          "target": {
            "node": 5,
            "path": "rotation"
          }
        },
        {
          "sampler": 4,
          "target": {
            "node": 6,
            "path": "rotation"
          }
        },
        {
          "sampler": 5,
          "target": {
            "node": 7,
            "path": "rotation"
          }
        },
        {
          "sampler": 6,
          "target": {
            "node": 10,
            "path": "rotation"
          }
        },
        {
          "sampler": 7,
          "target": {
            "node": 11,
            "path": "rotation"
          }
        },
        {
          "sampler": 8,
          "target": {
            "node": 16,
            "path": "rotation"
          }
        },
        {
          "sampler": 9,
          "target": {
            "node": 8,
            "path": "translation"
          }
        },
        {
          "sampler": 10,
          "target": {
            "node": 12,
            "path": "rotation"
          }
        },
        {
          "sampler": 11,
          "target": {
            "node": 13,
            "path": "rotation"
          }
        },
        {
          "sampler": 12,
          "target": {
            "node": 17,
            "path": "rotation"
          }
        },
        {
          "sampler": 13,
          "target": {
            "node": 9,
            "path": "translation"
          }
        },
        {
          "sampler": 14,
          "target": {
            "node": 14,
            "path": "rotation"
          }
        },
        {
          "sampler": 15,
          "target": {
            "node": 15,
            "path": "rotation"
          }
        },
        {
          "sampler": 16,
          "target": {
            "node": 30,
            "path": "rotation"
          }
        },
        {
          "sampler": 17,
          "target": {
            "node": 31,
            "path": "rotation"
          }
        },
        {
          "sampler": 18,
          "target": {
            "node": 32,
            "path": "rotation"
          }
        },
        {
          "sampler": 19,
          "target": {
            "node": 33,
            "path": "rotation"
          }
        },
        {
          "sampler": 20,
          "target": {
            "node": 34,
            "path": "rotation"
          }
        },
        {
          "sampler": 21,
          "target": {
            "node": 18,
            "path": "rotation"
          }
        },
        {
          "sampler": 22,
          "target": {
            "node": 19,
            "path": "rotation"
          }
        },
        {
          "sampler": 23,
          "target": {
            "node": 20,
            "path": "rotation"
          }
        },
        {
          "sampler": 24,
          "target": {
            "node": 21,
            "path": "rotation"
          }
        },
        {
          "sampler": 25,
          "target": {
            "node": 22,
            "path": "rotation"
          }
        },
        {
          "sampler": 26,
          "target": {
            "node": 23,
            "path": "rotation"
          }
        },
        {
          "sampler": 27,
          "target": {
            "node": 24,
            "path": "rotation"
          }
        },
        {
          "sampler": 28,
          "target": {
            "node": 25,
            "path": "rotation"
          }
        },
        {
          "sampler": 29,
          "target": {
            "node": 26,
            "path": "rotation"
          }
        },
        {
          "sampler": 30,
          "target": {
            "node": 27,
            "path": "rotation"
          }
        },
        {
          "sampler": 31,
          "target": {
            "node": 28,
            "path": "rotation"
          }
        },
        {
          "sampler": 32,
          "target": {
            "node": 29,
            "path": "rotation"
          }
        }
      ]
    }
  ]
}
